%TF.GenerationSoftware,KiCad,Pcbnew,5.1.5-52549c5~84~ubuntu19.04.1*%
%TF.CreationDate,2020-02-04T18:47:48+03:00*%
%TF.ProjectId,RGBcontroller_V1,52474263-6f6e-4747-926f-6c6c65725f56,rev?*%
%TF.SameCoordinates,Original*%
%TF.FileFunction,Legend,Bot*%
%TF.FilePolarity,Positive*%
%FSLAX46Y46*%
G04 Gerber Fmt 4.6, Leading zero omitted, Abs format (unit mm)*
G04 Created by KiCad (PCBNEW 5.1.5-52549c5~84~ubuntu19.04.1) date 2020-02-04 18:47:48*
%MOMM*%
%LPD*%
G04 APERTURE LIST*
%ADD10C,0.120000*%
%ADD11C,0.150000*%
G04 APERTURE END LIST*
D10*
X114710000Y-61741422D02*
X114710000Y-62258578D01*
X113290000Y-61741422D02*
X113290000Y-62258578D01*
X117710000Y-61741422D02*
X117710000Y-62258578D01*
X116290000Y-61741422D02*
X116290000Y-62258578D01*
X126110000Y-61741422D02*
X126110000Y-62258578D01*
X124690000Y-61741422D02*
X124690000Y-62258578D01*
X128910000Y-61778922D02*
X128910000Y-62296078D01*
X127490000Y-61778922D02*
X127490000Y-62296078D01*
X121678922Y-86290000D02*
X122196078Y-86290000D01*
X121678922Y-87710000D02*
X122196078Y-87710000D01*
X137110000Y-61641422D02*
X137110000Y-62158578D01*
X135690000Y-61641422D02*
X135690000Y-62158578D01*
X139810000Y-61641422D02*
X139810000Y-62158578D01*
X138390000Y-61641422D02*
X138390000Y-62158578D01*
X147910000Y-61741422D02*
X147910000Y-62258578D01*
X146490000Y-61741422D02*
X146490000Y-62258578D01*
X150610000Y-61741422D02*
X150610000Y-62258578D01*
X149190000Y-61741422D02*
X149190000Y-62258578D01*
X130490000Y-81171267D02*
X130490000Y-80828733D01*
X131510000Y-81171267D02*
X131510000Y-80828733D01*
X131510000Y-76828733D02*
X131510000Y-77171267D01*
X130490000Y-76828733D02*
X130490000Y-77171267D01*
X126741422Y-86290000D02*
X127258578Y-86290000D01*
X126741422Y-87710000D02*
X127258578Y-87710000D01*
X121710000Y-78738748D02*
X121710000Y-79261252D01*
X120290000Y-78738748D02*
X120290000Y-79261252D01*
X125935000Y-76515000D02*
X125935000Y-80600000D01*
X124065000Y-76515000D02*
X125935000Y-76515000D01*
X124065000Y-80600000D02*
X124065000Y-76515000D01*
D11*
X112802380Y-61357142D02*
X112326190Y-61023809D01*
X112802380Y-60785714D02*
X111802380Y-60785714D01*
X111802380Y-61166666D01*
X111850000Y-61261904D01*
X111897619Y-61309523D01*
X111992857Y-61357142D01*
X112135714Y-61357142D01*
X112230952Y-61309523D01*
X112278571Y-61261904D01*
X112326190Y-61166666D01*
X112326190Y-60785714D01*
X112802380Y-62309523D02*
X112802380Y-61738095D01*
X112802380Y-62023809D02*
X111802380Y-62023809D01*
X111945238Y-61928571D01*
X112040476Y-61833333D01*
X112088095Y-61738095D01*
X112802380Y-63261904D02*
X112802380Y-62690476D01*
X112802380Y-62976190D02*
X111802380Y-62976190D01*
X111945238Y-62880952D01*
X112040476Y-62785714D01*
X112088095Y-62690476D01*
X115802380Y-61357142D02*
X115326190Y-61023809D01*
X115802380Y-60785714D02*
X114802380Y-60785714D01*
X114802380Y-61166666D01*
X114850000Y-61261904D01*
X114897619Y-61309523D01*
X114992857Y-61357142D01*
X115135714Y-61357142D01*
X115230952Y-61309523D01*
X115278571Y-61261904D01*
X115326190Y-61166666D01*
X115326190Y-60785714D01*
X115802380Y-62309523D02*
X115802380Y-61738095D01*
X115802380Y-62023809D02*
X114802380Y-62023809D01*
X114945238Y-61928571D01*
X115040476Y-61833333D01*
X115088095Y-61738095D01*
X114802380Y-62928571D02*
X114802380Y-63023809D01*
X114850000Y-63119047D01*
X114897619Y-63166666D01*
X114992857Y-63214285D01*
X115183333Y-63261904D01*
X115421428Y-63261904D01*
X115611904Y-63214285D01*
X115707142Y-63166666D01*
X115754761Y-63119047D01*
X115802380Y-63023809D01*
X115802380Y-62928571D01*
X115754761Y-62833333D01*
X115707142Y-62785714D01*
X115611904Y-62738095D01*
X115421428Y-62690476D01*
X115183333Y-62690476D01*
X114992857Y-62738095D01*
X114897619Y-62785714D01*
X114850000Y-62833333D01*
X114802380Y-62928571D01*
X124202380Y-61833333D02*
X123726190Y-61500000D01*
X124202380Y-61261904D02*
X123202380Y-61261904D01*
X123202380Y-61642857D01*
X123250000Y-61738095D01*
X123297619Y-61785714D01*
X123392857Y-61833333D01*
X123535714Y-61833333D01*
X123630952Y-61785714D01*
X123678571Y-61738095D01*
X123726190Y-61642857D01*
X123726190Y-61261904D01*
X124202380Y-62309523D02*
X124202380Y-62500000D01*
X124154761Y-62595238D01*
X124107142Y-62642857D01*
X123964285Y-62738095D01*
X123773809Y-62785714D01*
X123392857Y-62785714D01*
X123297619Y-62738095D01*
X123250000Y-62690476D01*
X123202380Y-62595238D01*
X123202380Y-62404761D01*
X123250000Y-62309523D01*
X123297619Y-62261904D01*
X123392857Y-62214285D01*
X123630952Y-62214285D01*
X123726190Y-62261904D01*
X123773809Y-62309523D01*
X123821428Y-62404761D01*
X123821428Y-62595238D01*
X123773809Y-62690476D01*
X123726190Y-62738095D01*
X123630952Y-62785714D01*
X127002380Y-61870833D02*
X126526190Y-61537500D01*
X127002380Y-61299404D02*
X126002380Y-61299404D01*
X126002380Y-61680357D01*
X126050000Y-61775595D01*
X126097619Y-61823214D01*
X126192857Y-61870833D01*
X126335714Y-61870833D01*
X126430952Y-61823214D01*
X126478571Y-61775595D01*
X126526190Y-61680357D01*
X126526190Y-61299404D01*
X126430952Y-62442261D02*
X126383333Y-62347023D01*
X126335714Y-62299404D01*
X126240476Y-62251785D01*
X126192857Y-62251785D01*
X126097619Y-62299404D01*
X126050000Y-62347023D01*
X126002380Y-62442261D01*
X126002380Y-62632738D01*
X126050000Y-62727976D01*
X126097619Y-62775595D01*
X126192857Y-62823214D01*
X126240476Y-62823214D01*
X126335714Y-62775595D01*
X126383333Y-62727976D01*
X126430952Y-62632738D01*
X126430952Y-62442261D01*
X126478571Y-62347023D01*
X126526190Y-62299404D01*
X126621428Y-62251785D01*
X126811904Y-62251785D01*
X126907142Y-62299404D01*
X126954761Y-62347023D01*
X127002380Y-62442261D01*
X127002380Y-62632738D01*
X126954761Y-62727976D01*
X126907142Y-62775595D01*
X126811904Y-62823214D01*
X126621428Y-62823214D01*
X126526190Y-62775595D01*
X126478571Y-62727976D01*
X126430952Y-62632738D01*
X122104166Y-89102380D02*
X122437500Y-88626190D01*
X122675595Y-89102380D02*
X122675595Y-88102380D01*
X122294642Y-88102380D01*
X122199404Y-88150000D01*
X122151785Y-88197619D01*
X122104166Y-88292857D01*
X122104166Y-88435714D01*
X122151785Y-88530952D01*
X122199404Y-88578571D01*
X122294642Y-88626190D01*
X122675595Y-88626190D01*
X121247023Y-88102380D02*
X121437500Y-88102380D01*
X121532738Y-88150000D01*
X121580357Y-88197619D01*
X121675595Y-88340476D01*
X121723214Y-88530952D01*
X121723214Y-88911904D01*
X121675595Y-89007142D01*
X121627976Y-89054761D01*
X121532738Y-89102380D01*
X121342261Y-89102380D01*
X121247023Y-89054761D01*
X121199404Y-89007142D01*
X121151785Y-88911904D01*
X121151785Y-88673809D01*
X121199404Y-88578571D01*
X121247023Y-88530952D01*
X121342261Y-88483333D01*
X121532738Y-88483333D01*
X121627976Y-88530952D01*
X121675595Y-88578571D01*
X121723214Y-88673809D01*
X135202380Y-61733333D02*
X134726190Y-61400000D01*
X135202380Y-61161904D02*
X134202380Y-61161904D01*
X134202380Y-61542857D01*
X134250000Y-61638095D01*
X134297619Y-61685714D01*
X134392857Y-61733333D01*
X134535714Y-61733333D01*
X134630952Y-61685714D01*
X134678571Y-61638095D01*
X134726190Y-61542857D01*
X134726190Y-61161904D01*
X134202380Y-62638095D02*
X134202380Y-62161904D01*
X134678571Y-62114285D01*
X134630952Y-62161904D01*
X134583333Y-62257142D01*
X134583333Y-62495238D01*
X134630952Y-62590476D01*
X134678571Y-62638095D01*
X134773809Y-62685714D01*
X135011904Y-62685714D01*
X135107142Y-62638095D01*
X135154761Y-62590476D01*
X135202380Y-62495238D01*
X135202380Y-62257142D01*
X135154761Y-62161904D01*
X135107142Y-62114285D01*
X137902380Y-61733333D02*
X137426190Y-61400000D01*
X137902380Y-61161904D02*
X136902380Y-61161904D01*
X136902380Y-61542857D01*
X136950000Y-61638095D01*
X136997619Y-61685714D01*
X137092857Y-61733333D01*
X137235714Y-61733333D01*
X137330952Y-61685714D01*
X137378571Y-61638095D01*
X137426190Y-61542857D01*
X137426190Y-61161904D01*
X136902380Y-62066666D02*
X136902380Y-62685714D01*
X137283333Y-62352380D01*
X137283333Y-62495238D01*
X137330952Y-62590476D01*
X137378571Y-62638095D01*
X137473809Y-62685714D01*
X137711904Y-62685714D01*
X137807142Y-62638095D01*
X137854761Y-62590476D01*
X137902380Y-62495238D01*
X137902380Y-62209523D01*
X137854761Y-62114285D01*
X137807142Y-62066666D01*
X146002380Y-61833333D02*
X145526190Y-61500000D01*
X146002380Y-61261904D02*
X145002380Y-61261904D01*
X145002380Y-61642857D01*
X145050000Y-61738095D01*
X145097619Y-61785714D01*
X145192857Y-61833333D01*
X145335714Y-61833333D01*
X145430952Y-61785714D01*
X145478571Y-61738095D01*
X145526190Y-61642857D01*
X145526190Y-61261904D01*
X145097619Y-62214285D02*
X145050000Y-62261904D01*
X145002380Y-62357142D01*
X145002380Y-62595238D01*
X145050000Y-62690476D01*
X145097619Y-62738095D01*
X145192857Y-62785714D01*
X145288095Y-62785714D01*
X145430952Y-62738095D01*
X146002380Y-62166666D01*
X146002380Y-62785714D01*
X148702380Y-61833333D02*
X148226190Y-61500000D01*
X148702380Y-61261904D02*
X147702380Y-61261904D01*
X147702380Y-61642857D01*
X147750000Y-61738095D01*
X147797619Y-61785714D01*
X147892857Y-61833333D01*
X148035714Y-61833333D01*
X148130952Y-61785714D01*
X148178571Y-61738095D01*
X148226190Y-61642857D01*
X148226190Y-61261904D01*
X148702380Y-62785714D02*
X148702380Y-62214285D01*
X148702380Y-62500000D02*
X147702380Y-62500000D01*
X147845238Y-62404761D01*
X147940476Y-62309523D01*
X147988095Y-62214285D01*
X132787142Y-80833333D02*
X132834761Y-80785714D01*
X132882380Y-80642857D01*
X132882380Y-80547619D01*
X132834761Y-80404761D01*
X132739523Y-80309523D01*
X132644285Y-80261904D01*
X132453809Y-80214285D01*
X132310952Y-80214285D01*
X132120476Y-80261904D01*
X132025238Y-80309523D01*
X131930000Y-80404761D01*
X131882380Y-80547619D01*
X131882380Y-80642857D01*
X131930000Y-80785714D01*
X131977619Y-80833333D01*
X131882380Y-81690476D02*
X131882380Y-81500000D01*
X131930000Y-81404761D01*
X131977619Y-81357142D01*
X132120476Y-81261904D01*
X132310952Y-81214285D01*
X132691904Y-81214285D01*
X132787142Y-81261904D01*
X132834761Y-81309523D01*
X132882380Y-81404761D01*
X132882380Y-81595238D01*
X132834761Y-81690476D01*
X132787142Y-81738095D01*
X132691904Y-81785714D01*
X132453809Y-81785714D01*
X132358571Y-81738095D01*
X132310952Y-81690476D01*
X132263333Y-81595238D01*
X132263333Y-81404761D01*
X132310952Y-81309523D01*
X132358571Y-81261904D01*
X132453809Y-81214285D01*
X129927142Y-76833333D02*
X129974761Y-76785714D01*
X130022380Y-76642857D01*
X130022380Y-76547619D01*
X129974761Y-76404761D01*
X129879523Y-76309523D01*
X129784285Y-76261904D01*
X129593809Y-76214285D01*
X129450952Y-76214285D01*
X129260476Y-76261904D01*
X129165238Y-76309523D01*
X129070000Y-76404761D01*
X129022380Y-76547619D01*
X129022380Y-76642857D01*
X129070000Y-76785714D01*
X129117619Y-76833333D01*
X129022380Y-77738095D02*
X129022380Y-77261904D01*
X129498571Y-77214285D01*
X129450952Y-77261904D01*
X129403333Y-77357142D01*
X129403333Y-77595238D01*
X129450952Y-77690476D01*
X129498571Y-77738095D01*
X129593809Y-77785714D01*
X129831904Y-77785714D01*
X129927142Y-77738095D01*
X129974761Y-77690476D01*
X130022380Y-77595238D01*
X130022380Y-77357142D01*
X129974761Y-77261904D01*
X129927142Y-77214285D01*
X127166666Y-89007142D02*
X127214285Y-89054761D01*
X127357142Y-89102380D01*
X127452380Y-89102380D01*
X127595238Y-89054761D01*
X127690476Y-88959523D01*
X127738095Y-88864285D01*
X127785714Y-88673809D01*
X127785714Y-88530952D01*
X127738095Y-88340476D01*
X127690476Y-88245238D01*
X127595238Y-88150000D01*
X127452380Y-88102380D01*
X127357142Y-88102380D01*
X127214285Y-88150000D01*
X127166666Y-88197619D01*
X126309523Y-88435714D02*
X126309523Y-89102380D01*
X126547619Y-88054761D02*
X126785714Y-88769047D01*
X126166666Y-88769047D01*
X119707142Y-78833333D02*
X119754761Y-78785714D01*
X119802380Y-78642857D01*
X119802380Y-78547619D01*
X119754761Y-78404761D01*
X119659523Y-78309523D01*
X119564285Y-78261904D01*
X119373809Y-78214285D01*
X119230952Y-78214285D01*
X119040476Y-78261904D01*
X118945238Y-78309523D01*
X118850000Y-78404761D01*
X118802380Y-78547619D01*
X118802380Y-78642857D01*
X118850000Y-78785714D01*
X118897619Y-78833333D01*
X118897619Y-79214285D02*
X118850000Y-79261904D01*
X118802380Y-79357142D01*
X118802380Y-79595238D01*
X118850000Y-79690476D01*
X118897619Y-79738095D01*
X118992857Y-79785714D01*
X119088095Y-79785714D01*
X119230952Y-79738095D01*
X119802380Y-79166666D01*
X119802380Y-79785714D01*
X123607142Y-78833333D02*
X123654761Y-78785714D01*
X123702380Y-78642857D01*
X123702380Y-78547619D01*
X123654761Y-78404761D01*
X123559523Y-78309523D01*
X123464285Y-78261904D01*
X123273809Y-78214285D01*
X123130952Y-78214285D01*
X122940476Y-78261904D01*
X122845238Y-78309523D01*
X122750000Y-78404761D01*
X122702380Y-78547619D01*
X122702380Y-78642857D01*
X122750000Y-78785714D01*
X122797619Y-78833333D01*
X123702380Y-79785714D02*
X123702380Y-79214285D01*
X123702380Y-79500000D02*
X122702380Y-79500000D01*
X122845238Y-79404761D01*
X122940476Y-79309523D01*
X122988095Y-79214285D01*
M02*
