M48
; DRILL file {KiCad 5.1.5-52549c5~84~ubuntu19.04.1} date Вт 04 фев 2020 18:48:55
; FORMAT={-:-/ absolute / inch / decimal}
; #@! TF.CreationDate,2020-02-04T18:48:55+03:00
; #@! TF.GenerationSoftware,Kicad,Pcbnew,5.1.5-52549c5~84~ubuntu19.04.1
; #@! TF.FileFunction,Plated,1,2,PTH
FMAT,2
INCH
T1C0.0157
T2C0.0315
T3C0.0354
T4C0.0390
T5C0.0394
T6C0.0433
T7C0.0512
T8C0.0598
%
G90
G05
T1
X4.4094Y-3.2283
X4.4094Y-3.6614
X4.6063Y-2.5591
X4.6457Y-3.6614
X4.8425Y-3.0315
X4.8425Y-3.1496
X4.8819Y-3.7008
X4.9606Y-2.874
X5.0Y-3.5039
X5.0394Y-2.5591
X5.0787Y-3.189
X5.4331Y-2.5591
X5.4331Y-2.9921
X5.4724Y-2.9528
X5.5118Y-2.9134
X5.5906Y-2.874
X5.8268Y-2.874
X5.9055Y-2.5591
X6.4961Y-3.8189
T2
X5.315Y-3.0315
X5.315Y-3.2236
X6.2992Y-2.4016
X6.2992Y-2.5394
T3
X5.0181Y-3.8189
X5.1181Y-3.8189
T4
X4.1732Y-1.8504
X4.3504Y-1.8504
T5
X5.4693Y-3.7795
X5.5693Y-3.7795
X5.6693Y-3.7795
X5.7693Y-3.7795
X5.8693Y-3.7795
X6.3386Y-2.9075
X6.3386Y-3.0075
X6.3386Y-3.1075
X6.3386Y-3.2075
X6.3386Y-3.3075
X6.3386Y-3.4075
X4.7031Y-3.5433
X4.8031Y-3.5433
X4.1126Y-2.9921
X4.1126Y-3.0921
X4.2126Y-2.9921
X4.2126Y-3.0921
X4.3126Y-2.9921
X4.3126Y-3.0921
X4.3276Y-3.8189
X4.4276Y-3.8189
X4.5276Y-3.8189
T6
X5.6063Y-2.4016
X5.6063Y-2.5016
X5.6063Y-2.6016
X5.1772Y-2.4016
X5.1772Y-2.5016
X5.1772Y-2.6016
X4.2913Y-2.4016
X4.2913Y-2.5016
X4.2913Y-2.6016
X4.7441Y-2.4016
X4.7441Y-2.5016
X4.7441Y-2.6016
T7
X4.124Y-1.9484
X4.4Y-1.9484
X4.7638Y-1.9291
X4.9606Y-1.9291
X5.1575Y-1.9291
X5.3543Y-1.9291
X5.5512Y-1.9291
X5.748Y-1.9291
T8
X6.0205Y-1.9291
X6.2205Y-1.9291
T0
M30
