%TF.GenerationSoftware,KiCad,Pcbnew,5.1.5-52549c5~84~ubuntu19.04.1*%
%TF.CreationDate,2020-02-04T18:47:48+03:00*%
%TF.ProjectId,RGBcontroller_V1,52474263-6f6e-4747-926f-6c6c65725f56,rev?*%
%TF.SameCoordinates,Original*%
%TF.FileFunction,Copper,L1,Top*%
%TF.FilePolarity,Positive*%
%FSLAX46Y46*%
G04 Gerber Fmt 4.6, Leading zero omitted, Abs format (unit mm)*
G04 Created by KiCad (PCBNEW 5.1.5-52549c5~84~ubuntu19.04.1) date 2020-02-04 18:47:48*
%MOMM*%
%LPD*%
G04 APERTURE LIST*
%ADD10C,3.000000*%
%ADD11R,3.000000X3.000000*%
%ADD12O,1.700000X1.700000*%
%ADD13R,1.700000X1.700000*%
%ADD14C,0.150000*%
%ADD15R,1.500000X2.000000*%
%ADD16R,3.800000X2.000000*%
%ADD17C,2.600000*%
%ADD18R,2.600000X2.600000*%
%ADD19O,2.000000X1.905000*%
%ADD20R,2.000000X1.905000*%
%ADD21C,2.100000*%
%ADD22C,1.750000*%
%ADD23O,1.800000X1.800000*%
%ADD24R,1.800000X1.800000*%
%ADD25R,0.550000X1.600000*%
%ADD26R,1.600000X0.550000*%
%ADD27C,1.600000*%
%ADD28R,1.600000X1.600000*%
%ADD29C,1.500000*%
%ADD30C,0.800000*%
%ADD31C,0.250000*%
%ADD32C,1.500000*%
%ADD33C,0.254000*%
G04 APERTURE END LIST*
D10*
X152920000Y-49000000D03*
D11*
X158000000Y-49000000D03*
D12*
X161000000Y-86550000D03*
X161000000Y-84010000D03*
X161000000Y-81470000D03*
X161000000Y-78930000D03*
X161000000Y-76390000D03*
D13*
X161000000Y-73850000D03*
%TA.AperFunction,SMDPad,CuDef*%
D14*
G36*
X144330142Y-71301174D02*
G01*
X144353803Y-71304684D01*
X144377007Y-71310496D01*
X144399529Y-71318554D01*
X144421153Y-71328782D01*
X144441670Y-71341079D01*
X144460883Y-71355329D01*
X144478607Y-71371393D01*
X144494671Y-71389117D01*
X144508921Y-71408330D01*
X144521218Y-71428847D01*
X144531446Y-71450471D01*
X144539504Y-71472993D01*
X144545316Y-71496197D01*
X144548826Y-71519858D01*
X144550000Y-71543750D01*
X144550000Y-72456250D01*
X144548826Y-72480142D01*
X144545316Y-72503803D01*
X144539504Y-72527007D01*
X144531446Y-72549529D01*
X144521218Y-72571153D01*
X144508921Y-72591670D01*
X144494671Y-72610883D01*
X144478607Y-72628607D01*
X144460883Y-72644671D01*
X144441670Y-72658921D01*
X144421153Y-72671218D01*
X144399529Y-72681446D01*
X144377007Y-72689504D01*
X144353803Y-72695316D01*
X144330142Y-72698826D01*
X144306250Y-72700000D01*
X143818750Y-72700000D01*
X143794858Y-72698826D01*
X143771197Y-72695316D01*
X143747993Y-72689504D01*
X143725471Y-72681446D01*
X143703847Y-72671218D01*
X143683330Y-72658921D01*
X143664117Y-72644671D01*
X143646393Y-72628607D01*
X143630329Y-72610883D01*
X143616079Y-72591670D01*
X143603782Y-72571153D01*
X143593554Y-72549529D01*
X143585496Y-72527007D01*
X143579684Y-72503803D01*
X143576174Y-72480142D01*
X143575000Y-72456250D01*
X143575000Y-71543750D01*
X143576174Y-71519858D01*
X143579684Y-71496197D01*
X143585496Y-71472993D01*
X143593554Y-71450471D01*
X143603782Y-71428847D01*
X143616079Y-71408330D01*
X143630329Y-71389117D01*
X143646393Y-71371393D01*
X143664117Y-71355329D01*
X143683330Y-71341079D01*
X143703847Y-71328782D01*
X143725471Y-71318554D01*
X143747993Y-71310496D01*
X143771197Y-71304684D01*
X143794858Y-71301174D01*
X143818750Y-71300000D01*
X144306250Y-71300000D01*
X144330142Y-71301174D01*
G37*
%TD.AperFunction*%
%TA.AperFunction,SMDPad,CuDef*%
G36*
X146205142Y-71301174D02*
G01*
X146228803Y-71304684D01*
X146252007Y-71310496D01*
X146274529Y-71318554D01*
X146296153Y-71328782D01*
X146316670Y-71341079D01*
X146335883Y-71355329D01*
X146353607Y-71371393D01*
X146369671Y-71389117D01*
X146383921Y-71408330D01*
X146396218Y-71428847D01*
X146406446Y-71450471D01*
X146414504Y-71472993D01*
X146420316Y-71496197D01*
X146423826Y-71519858D01*
X146425000Y-71543750D01*
X146425000Y-72456250D01*
X146423826Y-72480142D01*
X146420316Y-72503803D01*
X146414504Y-72527007D01*
X146406446Y-72549529D01*
X146396218Y-72571153D01*
X146383921Y-72591670D01*
X146369671Y-72610883D01*
X146353607Y-72628607D01*
X146335883Y-72644671D01*
X146316670Y-72658921D01*
X146296153Y-72671218D01*
X146274529Y-72681446D01*
X146252007Y-72689504D01*
X146228803Y-72695316D01*
X146205142Y-72698826D01*
X146181250Y-72700000D01*
X145693750Y-72700000D01*
X145669858Y-72698826D01*
X145646197Y-72695316D01*
X145622993Y-72689504D01*
X145600471Y-72681446D01*
X145578847Y-72671218D01*
X145558330Y-72658921D01*
X145539117Y-72644671D01*
X145521393Y-72628607D01*
X145505329Y-72610883D01*
X145491079Y-72591670D01*
X145478782Y-72571153D01*
X145468554Y-72549529D01*
X145460496Y-72527007D01*
X145454684Y-72503803D01*
X145451174Y-72480142D01*
X145450000Y-72456250D01*
X145450000Y-71543750D01*
X145451174Y-71519858D01*
X145454684Y-71496197D01*
X145460496Y-71472993D01*
X145468554Y-71450471D01*
X145478782Y-71428847D01*
X145491079Y-71408330D01*
X145505329Y-71389117D01*
X145521393Y-71371393D01*
X145539117Y-71355329D01*
X145558330Y-71341079D01*
X145578847Y-71328782D01*
X145600471Y-71318554D01*
X145622993Y-71310496D01*
X145646197Y-71304684D01*
X145669858Y-71301174D01*
X145693750Y-71300000D01*
X146181250Y-71300000D01*
X146205142Y-71301174D01*
G37*
%TD.AperFunction*%
%TA.AperFunction,SMDPad,CuDef*%
G36*
X152205142Y-71301174D02*
G01*
X152228803Y-71304684D01*
X152252007Y-71310496D01*
X152274529Y-71318554D01*
X152296153Y-71328782D01*
X152316670Y-71341079D01*
X152335883Y-71355329D01*
X152353607Y-71371393D01*
X152369671Y-71389117D01*
X152383921Y-71408330D01*
X152396218Y-71428847D01*
X152406446Y-71450471D01*
X152414504Y-71472993D01*
X152420316Y-71496197D01*
X152423826Y-71519858D01*
X152425000Y-71543750D01*
X152425000Y-72456250D01*
X152423826Y-72480142D01*
X152420316Y-72503803D01*
X152414504Y-72527007D01*
X152406446Y-72549529D01*
X152396218Y-72571153D01*
X152383921Y-72591670D01*
X152369671Y-72610883D01*
X152353607Y-72628607D01*
X152335883Y-72644671D01*
X152316670Y-72658921D01*
X152296153Y-72671218D01*
X152274529Y-72681446D01*
X152252007Y-72689504D01*
X152228803Y-72695316D01*
X152205142Y-72698826D01*
X152181250Y-72700000D01*
X151693750Y-72700000D01*
X151669858Y-72698826D01*
X151646197Y-72695316D01*
X151622993Y-72689504D01*
X151600471Y-72681446D01*
X151578847Y-72671218D01*
X151558330Y-72658921D01*
X151539117Y-72644671D01*
X151521393Y-72628607D01*
X151505329Y-72610883D01*
X151491079Y-72591670D01*
X151478782Y-72571153D01*
X151468554Y-72549529D01*
X151460496Y-72527007D01*
X151454684Y-72503803D01*
X151451174Y-72480142D01*
X151450000Y-72456250D01*
X151450000Y-71543750D01*
X151451174Y-71519858D01*
X151454684Y-71496197D01*
X151460496Y-71472993D01*
X151468554Y-71450471D01*
X151478782Y-71428847D01*
X151491079Y-71408330D01*
X151505329Y-71389117D01*
X151521393Y-71371393D01*
X151539117Y-71355329D01*
X151558330Y-71341079D01*
X151578847Y-71328782D01*
X151600471Y-71318554D01*
X151622993Y-71310496D01*
X151646197Y-71304684D01*
X151669858Y-71301174D01*
X151693750Y-71300000D01*
X152181250Y-71300000D01*
X152205142Y-71301174D01*
G37*
%TD.AperFunction*%
%TA.AperFunction,SMDPad,CuDef*%
G36*
X150330142Y-71301174D02*
G01*
X150353803Y-71304684D01*
X150377007Y-71310496D01*
X150399529Y-71318554D01*
X150421153Y-71328782D01*
X150441670Y-71341079D01*
X150460883Y-71355329D01*
X150478607Y-71371393D01*
X150494671Y-71389117D01*
X150508921Y-71408330D01*
X150521218Y-71428847D01*
X150531446Y-71450471D01*
X150539504Y-71472993D01*
X150545316Y-71496197D01*
X150548826Y-71519858D01*
X150550000Y-71543750D01*
X150550000Y-72456250D01*
X150548826Y-72480142D01*
X150545316Y-72503803D01*
X150539504Y-72527007D01*
X150531446Y-72549529D01*
X150521218Y-72571153D01*
X150508921Y-72591670D01*
X150494671Y-72610883D01*
X150478607Y-72628607D01*
X150460883Y-72644671D01*
X150441670Y-72658921D01*
X150421153Y-72671218D01*
X150399529Y-72681446D01*
X150377007Y-72689504D01*
X150353803Y-72695316D01*
X150330142Y-72698826D01*
X150306250Y-72700000D01*
X149818750Y-72700000D01*
X149794858Y-72698826D01*
X149771197Y-72695316D01*
X149747993Y-72689504D01*
X149725471Y-72681446D01*
X149703847Y-72671218D01*
X149683330Y-72658921D01*
X149664117Y-72644671D01*
X149646393Y-72628607D01*
X149630329Y-72610883D01*
X149616079Y-72591670D01*
X149603782Y-72571153D01*
X149593554Y-72549529D01*
X149585496Y-72527007D01*
X149579684Y-72503803D01*
X149576174Y-72480142D01*
X149575000Y-72456250D01*
X149575000Y-71543750D01*
X149576174Y-71519858D01*
X149579684Y-71496197D01*
X149585496Y-71472993D01*
X149593554Y-71450471D01*
X149603782Y-71428847D01*
X149616079Y-71408330D01*
X149630329Y-71389117D01*
X149646393Y-71371393D01*
X149664117Y-71355329D01*
X149683330Y-71341079D01*
X149703847Y-71328782D01*
X149725471Y-71318554D01*
X149747993Y-71310496D01*
X149771197Y-71304684D01*
X149794858Y-71301174D01*
X149818750Y-71300000D01*
X150306250Y-71300000D01*
X150330142Y-71301174D01*
G37*
%TD.AperFunction*%
D15*
X149300000Y-75850000D03*
X144700000Y-75850000D03*
X147000000Y-75850000D03*
D16*
X147000000Y-82150000D03*
D17*
X146000000Y-49000000D03*
X141000000Y-49000000D03*
X136000000Y-49000000D03*
X131000000Y-49000000D03*
X126000000Y-49000000D03*
D18*
X121000000Y-49000000D03*
D19*
X109000000Y-66080000D03*
X109000000Y-63540000D03*
D20*
X109000000Y-61000000D03*
D12*
X104460000Y-78540000D03*
X104460000Y-76000000D03*
X107000000Y-78540000D03*
X107000000Y-76000000D03*
X109540000Y-78540000D03*
D13*
X109540000Y-76000000D03*
D21*
X104750000Y-49490000D03*
D22*
X106000000Y-47000000D03*
X110500000Y-47000000D03*
D21*
X111760000Y-49490000D03*
D12*
X119460000Y-90000000D03*
D13*
X122000000Y-90000000D03*
%TA.AperFunction,SMDPad,CuDef*%
D14*
G36*
X123260779Y-96476144D02*
G01*
X123283834Y-96479563D01*
X123306443Y-96485227D01*
X123328387Y-96493079D01*
X123349457Y-96503044D01*
X123369448Y-96515026D01*
X123388168Y-96528910D01*
X123405438Y-96544562D01*
X123421090Y-96561832D01*
X123434974Y-96580552D01*
X123446956Y-96600543D01*
X123456921Y-96621613D01*
X123464773Y-96643557D01*
X123470437Y-96666166D01*
X123473856Y-96689221D01*
X123475000Y-96712500D01*
X123475000Y-97287500D01*
X123473856Y-97310779D01*
X123470437Y-97333834D01*
X123464773Y-97356443D01*
X123456921Y-97378387D01*
X123446956Y-97399457D01*
X123434974Y-97419448D01*
X123421090Y-97438168D01*
X123405438Y-97455438D01*
X123388168Y-97471090D01*
X123369448Y-97484974D01*
X123349457Y-97496956D01*
X123328387Y-97506921D01*
X123306443Y-97514773D01*
X123283834Y-97520437D01*
X123260779Y-97523856D01*
X123237500Y-97525000D01*
X122762500Y-97525000D01*
X122739221Y-97523856D01*
X122716166Y-97520437D01*
X122693557Y-97514773D01*
X122671613Y-97506921D01*
X122650543Y-97496956D01*
X122630552Y-97484974D01*
X122611832Y-97471090D01*
X122594562Y-97455438D01*
X122578910Y-97438168D01*
X122565026Y-97419448D01*
X122553044Y-97399457D01*
X122543079Y-97378387D01*
X122535227Y-97356443D01*
X122529563Y-97333834D01*
X122526144Y-97310779D01*
X122525000Y-97287500D01*
X122525000Y-96712500D01*
X122526144Y-96689221D01*
X122529563Y-96666166D01*
X122535227Y-96643557D01*
X122543079Y-96621613D01*
X122553044Y-96600543D01*
X122565026Y-96580552D01*
X122578910Y-96561832D01*
X122594562Y-96544562D01*
X122611832Y-96528910D01*
X122630552Y-96515026D01*
X122650543Y-96503044D01*
X122671613Y-96493079D01*
X122693557Y-96485227D01*
X122716166Y-96479563D01*
X122739221Y-96476144D01*
X122762500Y-96475000D01*
X123237500Y-96475000D01*
X123260779Y-96476144D01*
G37*
%TD.AperFunction*%
%TA.AperFunction,SMDPad,CuDef*%
G36*
X123260779Y-94726144D02*
G01*
X123283834Y-94729563D01*
X123306443Y-94735227D01*
X123328387Y-94743079D01*
X123349457Y-94753044D01*
X123369448Y-94765026D01*
X123388168Y-94778910D01*
X123405438Y-94794562D01*
X123421090Y-94811832D01*
X123434974Y-94830552D01*
X123446956Y-94850543D01*
X123456921Y-94871613D01*
X123464773Y-94893557D01*
X123470437Y-94916166D01*
X123473856Y-94939221D01*
X123475000Y-94962500D01*
X123475000Y-95537500D01*
X123473856Y-95560779D01*
X123470437Y-95583834D01*
X123464773Y-95606443D01*
X123456921Y-95628387D01*
X123446956Y-95649457D01*
X123434974Y-95669448D01*
X123421090Y-95688168D01*
X123405438Y-95705438D01*
X123388168Y-95721090D01*
X123369448Y-95734974D01*
X123349457Y-95746956D01*
X123328387Y-95756921D01*
X123306443Y-95764773D01*
X123283834Y-95770437D01*
X123260779Y-95773856D01*
X123237500Y-95775000D01*
X122762500Y-95775000D01*
X122739221Y-95773856D01*
X122716166Y-95770437D01*
X122693557Y-95764773D01*
X122671613Y-95756921D01*
X122650543Y-95746956D01*
X122630552Y-95734974D01*
X122611832Y-95721090D01*
X122594562Y-95705438D01*
X122578910Y-95688168D01*
X122565026Y-95669448D01*
X122553044Y-95649457D01*
X122543079Y-95628387D01*
X122535227Y-95606443D01*
X122529563Y-95583834D01*
X122526144Y-95560779D01*
X122525000Y-95537500D01*
X122525000Y-94962500D01*
X122526144Y-94939221D01*
X122529563Y-94916166D01*
X122535227Y-94893557D01*
X122543079Y-94871613D01*
X122553044Y-94850543D01*
X122565026Y-94830552D01*
X122578910Y-94811832D01*
X122594562Y-94794562D01*
X122611832Y-94778910D01*
X122630552Y-94765026D01*
X122650543Y-94753044D01*
X122671613Y-94743079D01*
X122693557Y-94735227D01*
X122716166Y-94729563D01*
X122739221Y-94726144D01*
X122762500Y-94725000D01*
X123237500Y-94725000D01*
X123260779Y-94726144D01*
G37*
%TD.AperFunction*%
%TA.AperFunction,SMDPad,CuDef*%
G36*
X157185779Y-96526144D02*
G01*
X157208834Y-96529563D01*
X157231443Y-96535227D01*
X157253387Y-96543079D01*
X157274457Y-96553044D01*
X157294448Y-96565026D01*
X157313168Y-96578910D01*
X157330438Y-96594562D01*
X157346090Y-96611832D01*
X157359974Y-96630552D01*
X157371956Y-96650543D01*
X157381921Y-96671613D01*
X157389773Y-96693557D01*
X157395437Y-96716166D01*
X157398856Y-96739221D01*
X157400000Y-96762500D01*
X157400000Y-97237500D01*
X157398856Y-97260779D01*
X157395437Y-97283834D01*
X157389773Y-97306443D01*
X157381921Y-97328387D01*
X157371956Y-97349457D01*
X157359974Y-97369448D01*
X157346090Y-97388168D01*
X157330438Y-97405438D01*
X157313168Y-97421090D01*
X157294448Y-97434974D01*
X157274457Y-97446956D01*
X157253387Y-97456921D01*
X157231443Y-97464773D01*
X157208834Y-97470437D01*
X157185779Y-97473856D01*
X157162500Y-97475000D01*
X156587500Y-97475000D01*
X156564221Y-97473856D01*
X156541166Y-97470437D01*
X156518557Y-97464773D01*
X156496613Y-97456921D01*
X156475543Y-97446956D01*
X156455552Y-97434974D01*
X156436832Y-97421090D01*
X156419562Y-97405438D01*
X156403910Y-97388168D01*
X156390026Y-97369448D01*
X156378044Y-97349457D01*
X156368079Y-97328387D01*
X156360227Y-97306443D01*
X156354563Y-97283834D01*
X156351144Y-97260779D01*
X156350000Y-97237500D01*
X156350000Y-96762500D01*
X156351144Y-96739221D01*
X156354563Y-96716166D01*
X156360227Y-96693557D01*
X156368079Y-96671613D01*
X156378044Y-96650543D01*
X156390026Y-96630552D01*
X156403910Y-96611832D01*
X156419562Y-96594562D01*
X156436832Y-96578910D01*
X156455552Y-96565026D01*
X156475543Y-96553044D01*
X156496613Y-96543079D01*
X156518557Y-96535227D01*
X156541166Y-96529563D01*
X156564221Y-96526144D01*
X156587500Y-96525000D01*
X157162500Y-96525000D01*
X157185779Y-96526144D01*
G37*
%TD.AperFunction*%
%TA.AperFunction,SMDPad,CuDef*%
G36*
X155435779Y-96526144D02*
G01*
X155458834Y-96529563D01*
X155481443Y-96535227D01*
X155503387Y-96543079D01*
X155524457Y-96553044D01*
X155544448Y-96565026D01*
X155563168Y-96578910D01*
X155580438Y-96594562D01*
X155596090Y-96611832D01*
X155609974Y-96630552D01*
X155621956Y-96650543D01*
X155631921Y-96671613D01*
X155639773Y-96693557D01*
X155645437Y-96716166D01*
X155648856Y-96739221D01*
X155650000Y-96762500D01*
X155650000Y-97237500D01*
X155648856Y-97260779D01*
X155645437Y-97283834D01*
X155639773Y-97306443D01*
X155631921Y-97328387D01*
X155621956Y-97349457D01*
X155609974Y-97369448D01*
X155596090Y-97388168D01*
X155580438Y-97405438D01*
X155563168Y-97421090D01*
X155544448Y-97434974D01*
X155524457Y-97446956D01*
X155503387Y-97456921D01*
X155481443Y-97464773D01*
X155458834Y-97470437D01*
X155435779Y-97473856D01*
X155412500Y-97475000D01*
X154837500Y-97475000D01*
X154814221Y-97473856D01*
X154791166Y-97470437D01*
X154768557Y-97464773D01*
X154746613Y-97456921D01*
X154725543Y-97446956D01*
X154705552Y-97434974D01*
X154686832Y-97421090D01*
X154669562Y-97405438D01*
X154653910Y-97388168D01*
X154640026Y-97369448D01*
X154628044Y-97349457D01*
X154618079Y-97328387D01*
X154610227Y-97306443D01*
X154604563Y-97283834D01*
X154601144Y-97260779D01*
X154600000Y-97237500D01*
X154600000Y-96762500D01*
X154601144Y-96739221D01*
X154604563Y-96716166D01*
X154610227Y-96693557D01*
X154618079Y-96671613D01*
X154628044Y-96650543D01*
X154640026Y-96630552D01*
X154653910Y-96611832D01*
X154669562Y-96594562D01*
X154686832Y-96578910D01*
X154705552Y-96565026D01*
X154725543Y-96553044D01*
X154746613Y-96543079D01*
X154768557Y-96535227D01*
X154791166Y-96529563D01*
X154814221Y-96526144D01*
X154837500Y-96525000D01*
X155412500Y-96525000D01*
X155435779Y-96526144D01*
G37*
%TD.AperFunction*%
D19*
X120500000Y-66080000D03*
X120500000Y-63540000D03*
D20*
X120500000Y-61000000D03*
D19*
X131500000Y-66080000D03*
X131500000Y-63540000D03*
D20*
X131500000Y-61000000D03*
D19*
X142400000Y-66080000D03*
X142400000Y-63540000D03*
D20*
X142400000Y-61000000D03*
D12*
X109920000Y-97000000D03*
X112460000Y-97000000D03*
D13*
X115000000Y-97000000D03*
D12*
X149080000Y-96000000D03*
X146540000Y-96000000D03*
X144000000Y-96000000D03*
X141460000Y-96000000D03*
D13*
X138920000Y-96000000D03*
D23*
X127460000Y-97000000D03*
D24*
X130000000Y-97000000D03*
%TA.AperFunction,SMDPad,CuDef*%
D14*
G36*
X159560779Y-96526144D02*
G01*
X159583834Y-96529563D01*
X159606443Y-96535227D01*
X159628387Y-96543079D01*
X159649457Y-96553044D01*
X159669448Y-96565026D01*
X159688168Y-96578910D01*
X159705438Y-96594562D01*
X159721090Y-96611832D01*
X159734974Y-96630552D01*
X159746956Y-96650543D01*
X159756921Y-96671613D01*
X159764773Y-96693557D01*
X159770437Y-96716166D01*
X159773856Y-96739221D01*
X159775000Y-96762500D01*
X159775000Y-97237500D01*
X159773856Y-97260779D01*
X159770437Y-97283834D01*
X159764773Y-97306443D01*
X159756921Y-97328387D01*
X159746956Y-97349457D01*
X159734974Y-97369448D01*
X159721090Y-97388168D01*
X159705438Y-97405438D01*
X159688168Y-97421090D01*
X159669448Y-97434974D01*
X159649457Y-97446956D01*
X159628387Y-97456921D01*
X159606443Y-97464773D01*
X159583834Y-97470437D01*
X159560779Y-97473856D01*
X159537500Y-97475000D01*
X158962500Y-97475000D01*
X158939221Y-97473856D01*
X158916166Y-97470437D01*
X158893557Y-97464773D01*
X158871613Y-97456921D01*
X158850543Y-97446956D01*
X158830552Y-97434974D01*
X158811832Y-97421090D01*
X158794562Y-97405438D01*
X158778910Y-97388168D01*
X158765026Y-97369448D01*
X158753044Y-97349457D01*
X158743079Y-97328387D01*
X158735227Y-97306443D01*
X158729563Y-97283834D01*
X158726144Y-97260779D01*
X158725000Y-97237500D01*
X158725000Y-96762500D01*
X158726144Y-96739221D01*
X158729563Y-96716166D01*
X158735227Y-96693557D01*
X158743079Y-96671613D01*
X158753044Y-96650543D01*
X158765026Y-96630552D01*
X158778910Y-96611832D01*
X158794562Y-96594562D01*
X158811832Y-96578910D01*
X158830552Y-96565026D01*
X158850543Y-96553044D01*
X158871613Y-96543079D01*
X158893557Y-96535227D01*
X158916166Y-96529563D01*
X158939221Y-96526144D01*
X158962500Y-96525000D01*
X159537500Y-96525000D01*
X159560779Y-96526144D01*
G37*
%TD.AperFunction*%
%TA.AperFunction,SMDPad,CuDef*%
G36*
X161310779Y-96526144D02*
G01*
X161333834Y-96529563D01*
X161356443Y-96535227D01*
X161378387Y-96543079D01*
X161399457Y-96553044D01*
X161419448Y-96565026D01*
X161438168Y-96578910D01*
X161455438Y-96594562D01*
X161471090Y-96611832D01*
X161484974Y-96630552D01*
X161496956Y-96650543D01*
X161506921Y-96671613D01*
X161514773Y-96693557D01*
X161520437Y-96716166D01*
X161523856Y-96739221D01*
X161525000Y-96762500D01*
X161525000Y-97237500D01*
X161523856Y-97260779D01*
X161520437Y-97283834D01*
X161514773Y-97306443D01*
X161506921Y-97328387D01*
X161496956Y-97349457D01*
X161484974Y-97369448D01*
X161471090Y-97388168D01*
X161455438Y-97405438D01*
X161438168Y-97421090D01*
X161419448Y-97434974D01*
X161399457Y-97446956D01*
X161378387Y-97456921D01*
X161356443Y-97464773D01*
X161333834Y-97470437D01*
X161310779Y-97473856D01*
X161287500Y-97475000D01*
X160712500Y-97475000D01*
X160689221Y-97473856D01*
X160666166Y-97470437D01*
X160643557Y-97464773D01*
X160621613Y-97456921D01*
X160600543Y-97446956D01*
X160580552Y-97434974D01*
X160561832Y-97421090D01*
X160544562Y-97405438D01*
X160528910Y-97388168D01*
X160515026Y-97369448D01*
X160503044Y-97349457D01*
X160493079Y-97328387D01*
X160485227Y-97306443D01*
X160479563Y-97283834D01*
X160476144Y-97260779D01*
X160475000Y-97237500D01*
X160475000Y-96762500D01*
X160476144Y-96739221D01*
X160479563Y-96716166D01*
X160485227Y-96693557D01*
X160493079Y-96671613D01*
X160503044Y-96650543D01*
X160515026Y-96630552D01*
X160528910Y-96611832D01*
X160544562Y-96594562D01*
X160561832Y-96578910D01*
X160580552Y-96565026D01*
X160600543Y-96553044D01*
X160621613Y-96543079D01*
X160643557Y-96535227D01*
X160666166Y-96529563D01*
X160689221Y-96526144D01*
X160712500Y-96525000D01*
X161287500Y-96525000D01*
X161310779Y-96526144D01*
G37*
%TD.AperFunction*%
D25*
X125800000Y-83250000D03*
X125000000Y-83250000D03*
X124200000Y-83250000D03*
X123400000Y-83250000D03*
X122600000Y-83250000D03*
X121800000Y-83250000D03*
X121000000Y-83250000D03*
X120200000Y-83250000D03*
D26*
X118750000Y-81800000D03*
X118750000Y-81000000D03*
X118750000Y-80200000D03*
X118750000Y-79400000D03*
X118750000Y-78600000D03*
X118750000Y-77800000D03*
X118750000Y-77000000D03*
X118750000Y-76200000D03*
D25*
X120200000Y-74750000D03*
X121000000Y-74750000D03*
X121800000Y-74750000D03*
X122600000Y-74750000D03*
X123400000Y-74750000D03*
X124200000Y-74750000D03*
X125000000Y-74750000D03*
X125800000Y-74750000D03*
D26*
X127250000Y-76200000D03*
X127250000Y-77000000D03*
X127250000Y-77800000D03*
X127250000Y-78600000D03*
X127250000Y-79400000D03*
X127250000Y-80200000D03*
X127250000Y-81000000D03*
X127250000Y-81800000D03*
D27*
X160000000Y-64500000D03*
D28*
X160000000Y-61000000D03*
%TA.AperFunction,SMDPad,CuDef*%
D14*
G36*
X115474505Y-81451204D02*
G01*
X115498773Y-81454804D01*
X115522572Y-81460765D01*
X115545671Y-81469030D01*
X115567850Y-81479520D01*
X115588893Y-81492132D01*
X115608599Y-81506747D01*
X115626777Y-81523223D01*
X115643253Y-81541401D01*
X115657868Y-81561107D01*
X115670480Y-81582150D01*
X115680970Y-81604329D01*
X115689235Y-81627428D01*
X115695196Y-81651227D01*
X115698796Y-81675495D01*
X115700000Y-81699999D01*
X115700000Y-82350001D01*
X115698796Y-82374505D01*
X115695196Y-82398773D01*
X115689235Y-82422572D01*
X115680970Y-82445671D01*
X115670480Y-82467850D01*
X115657868Y-82488893D01*
X115643253Y-82508599D01*
X115626777Y-82526777D01*
X115608599Y-82543253D01*
X115588893Y-82557868D01*
X115567850Y-82570480D01*
X115545671Y-82580970D01*
X115522572Y-82589235D01*
X115498773Y-82595196D01*
X115474505Y-82598796D01*
X115450001Y-82600000D01*
X114549999Y-82600000D01*
X114525495Y-82598796D01*
X114501227Y-82595196D01*
X114477428Y-82589235D01*
X114454329Y-82580970D01*
X114432150Y-82570480D01*
X114411107Y-82557868D01*
X114391401Y-82543253D01*
X114373223Y-82526777D01*
X114356747Y-82508599D01*
X114342132Y-82488893D01*
X114329520Y-82467850D01*
X114319030Y-82445671D01*
X114310765Y-82422572D01*
X114304804Y-82398773D01*
X114301204Y-82374505D01*
X114300000Y-82350001D01*
X114300000Y-81699999D01*
X114301204Y-81675495D01*
X114304804Y-81651227D01*
X114310765Y-81627428D01*
X114319030Y-81604329D01*
X114329520Y-81582150D01*
X114342132Y-81561107D01*
X114356747Y-81541401D01*
X114373223Y-81523223D01*
X114391401Y-81506747D01*
X114411107Y-81492132D01*
X114432150Y-81479520D01*
X114454329Y-81469030D01*
X114477428Y-81460765D01*
X114501227Y-81454804D01*
X114525495Y-81451204D01*
X114549999Y-81450000D01*
X115450001Y-81450000D01*
X115474505Y-81451204D01*
G37*
%TD.AperFunction*%
%TA.AperFunction,SMDPad,CuDef*%
G36*
X115474505Y-79401204D02*
G01*
X115498773Y-79404804D01*
X115522572Y-79410765D01*
X115545671Y-79419030D01*
X115567850Y-79429520D01*
X115588893Y-79442132D01*
X115608599Y-79456747D01*
X115626777Y-79473223D01*
X115643253Y-79491401D01*
X115657868Y-79511107D01*
X115670480Y-79532150D01*
X115680970Y-79554329D01*
X115689235Y-79577428D01*
X115695196Y-79601227D01*
X115698796Y-79625495D01*
X115700000Y-79649999D01*
X115700000Y-80300001D01*
X115698796Y-80324505D01*
X115695196Y-80348773D01*
X115689235Y-80372572D01*
X115680970Y-80395671D01*
X115670480Y-80417850D01*
X115657868Y-80438893D01*
X115643253Y-80458599D01*
X115626777Y-80476777D01*
X115608599Y-80493253D01*
X115588893Y-80507868D01*
X115567850Y-80520480D01*
X115545671Y-80530970D01*
X115522572Y-80539235D01*
X115498773Y-80545196D01*
X115474505Y-80548796D01*
X115450001Y-80550000D01*
X114549999Y-80550000D01*
X114525495Y-80548796D01*
X114501227Y-80545196D01*
X114477428Y-80539235D01*
X114454329Y-80530970D01*
X114432150Y-80520480D01*
X114411107Y-80507868D01*
X114391401Y-80493253D01*
X114373223Y-80476777D01*
X114356747Y-80458599D01*
X114342132Y-80438893D01*
X114329520Y-80417850D01*
X114319030Y-80395671D01*
X114310765Y-80372572D01*
X114304804Y-80348773D01*
X114301204Y-80324505D01*
X114300000Y-80300001D01*
X114300000Y-79649999D01*
X114301204Y-79625495D01*
X114304804Y-79601227D01*
X114310765Y-79577428D01*
X114319030Y-79554329D01*
X114329520Y-79532150D01*
X114342132Y-79511107D01*
X114356747Y-79491401D01*
X114373223Y-79473223D01*
X114391401Y-79456747D01*
X114411107Y-79442132D01*
X114432150Y-79429520D01*
X114454329Y-79419030D01*
X114477428Y-79410765D01*
X114501227Y-79404804D01*
X114525495Y-79401204D01*
X114549999Y-79400000D01*
X115450001Y-79400000D01*
X115474505Y-79401204D01*
G37*
%TD.AperFunction*%
D29*
X135000000Y-81880000D03*
X135000000Y-77000000D03*
D30*
X165000000Y-97000000D03*
X148000000Y-73000000D03*
X123000000Y-80000000D03*
X112000000Y-82000000D03*
X118000000Y-93000000D03*
X112000000Y-93000000D03*
X123000000Y-77000000D03*
X142000000Y-73000000D03*
X127000000Y-89000000D03*
X128000000Y-65000000D03*
X138000000Y-65000000D03*
X140000000Y-74000000D03*
X139000000Y-75000000D03*
X138000000Y-76000000D03*
X126000000Y-73000000D03*
X124000000Y-94000000D03*
X129000000Y-81000000D03*
X150000000Y-65000000D03*
X117000000Y-65000000D03*
D31*
X130120000Y-77000000D02*
X135000000Y-81880000D01*
X127250000Y-77000000D02*
X130120000Y-77000000D01*
X134200000Y-76200000D02*
X135000000Y-77000000D01*
X127250000Y-76200000D02*
X134200000Y-76200000D01*
X117700000Y-79400000D02*
X118750000Y-79400000D01*
X117600000Y-79400000D02*
X117700000Y-79400000D01*
X117000000Y-80000000D02*
X117600000Y-79400000D01*
X117000000Y-80725000D02*
X117000000Y-80000000D01*
X115700000Y-82025000D02*
X117000000Y-80725000D01*
X115000000Y-82025000D02*
X115700000Y-82025000D01*
X123200000Y-80200000D02*
X123000000Y-80000000D01*
X127250000Y-80200000D02*
X123200000Y-80200000D01*
X122400000Y-79400000D02*
X123000000Y-80000000D01*
X118750000Y-79400000D02*
X122400000Y-79400000D01*
X127250000Y-78600000D02*
X124400000Y-78600000D01*
X124400000Y-78600000D02*
X123000000Y-80000000D01*
X137920000Y-97000000D02*
X138920000Y-96000000D01*
X130000000Y-97000000D02*
X137920000Y-97000000D01*
X105309999Y-79389999D02*
X105309999Y-81309999D01*
X104460000Y-78540000D02*
X105309999Y-79389999D01*
X105309999Y-81309999D02*
X107000000Y-83000000D01*
X115000000Y-83000000D02*
X115000000Y-82025000D01*
X148000000Y-73000000D02*
X148000000Y-72000000D01*
X145937500Y-72000000D02*
X148000000Y-72000000D01*
X148000000Y-72000000D02*
X150062500Y-72000000D01*
X148000000Y-73000000D02*
X147000000Y-74000000D01*
X147000000Y-74000000D02*
X147000000Y-75850000D01*
X147000000Y-82150000D02*
X147000000Y-75850000D01*
X165000000Y-97000000D02*
X161000000Y-97000000D01*
X112000000Y-83000000D02*
X112000000Y-82000000D01*
X112000000Y-83000000D02*
X115000000Y-83000000D01*
X107000000Y-83000000D02*
X112000000Y-83000000D01*
X112000000Y-93000000D02*
X118000000Y-93000000D01*
X123800000Y-77800000D02*
X123000000Y-77000000D01*
X127250000Y-77800000D02*
X123800000Y-77800000D01*
X118750000Y-77000000D02*
X123000000Y-77000000D01*
X155125000Y-97000000D02*
X153000000Y-97000000D01*
X153000000Y-97000000D02*
X151000000Y-99000000D01*
X144460000Y-99000000D02*
X141460000Y-96000000D01*
X151000000Y-99000000D02*
X144460000Y-99000000D01*
X116000000Y-77000000D02*
X118750000Y-77000000D01*
X114460000Y-78540000D02*
X116000000Y-77000000D01*
X109540000Y-78540000D02*
X114460000Y-78540000D01*
X144700000Y-74600000D02*
X144100000Y-74000000D01*
X144700000Y-75850000D02*
X144700000Y-74600000D01*
X144100000Y-74000000D02*
X143000000Y-74000000D01*
X143000000Y-74000000D02*
X142000000Y-73000000D01*
X143062500Y-73000000D02*
X144062500Y-72000000D01*
X142000000Y-73000000D02*
X143062500Y-73000000D01*
X142000000Y-73000000D02*
X142000000Y-73000000D01*
X127250000Y-79400000D02*
X128600000Y-79400000D01*
X128600000Y-79400000D02*
X129000000Y-79000000D01*
X117700000Y-78600000D02*
X118750000Y-78600000D01*
X117075000Y-78600000D02*
X117700000Y-78600000D01*
X115700000Y-79975000D02*
X117075000Y-78600000D01*
X115000000Y-79975000D02*
X115700000Y-79975000D01*
X123400000Y-84600000D02*
X123400000Y-83250000D01*
X104460000Y-76000000D02*
X103000000Y-76000000D01*
X106600000Y-84600000D02*
X123400000Y-84600000D01*
X103000000Y-76000000D02*
X102000000Y-77000000D01*
X102000000Y-77000000D02*
X102000000Y-80000000D01*
X102000000Y-80000000D02*
X106600000Y-84600000D01*
X122000000Y-88900000D02*
X122000000Y-90000000D01*
X123400000Y-83250000D02*
X123400000Y-87500000D01*
X123400000Y-87500000D02*
X122000000Y-88900000D01*
D32*
X161000000Y-49000000D02*
X158000000Y-49000000D01*
X141000000Y-53000000D02*
X144000000Y-56000000D01*
X141000000Y-49000000D02*
X141000000Y-53000000D01*
X159000000Y-56000000D02*
X159000000Y-54000000D01*
X159000000Y-54000000D02*
X161000000Y-52000000D01*
X141000000Y-49000000D02*
X141000000Y-42000000D01*
X161000000Y-42000000D02*
X162000000Y-43000000D01*
X141000000Y-42000000D02*
X161000000Y-42000000D01*
X161000000Y-49000000D02*
X161000000Y-52000000D01*
X162000000Y-48000000D02*
X161000000Y-49000000D01*
X162000000Y-43000000D02*
X162000000Y-48000000D01*
X158000000Y-56700000D02*
X158000000Y-56000000D01*
X160000000Y-58700000D02*
X158000000Y-56700000D01*
X160000000Y-61000000D02*
X160000000Y-58700000D01*
X144000000Y-56000000D02*
X158000000Y-56000000D01*
X158000000Y-56000000D02*
X159000000Y-56000000D01*
X149300000Y-75850000D02*
X151550000Y-75850000D01*
X158400000Y-69000000D02*
X164000000Y-69000000D01*
X164000000Y-69000000D02*
X165000000Y-68000000D01*
X162300000Y-61000000D02*
X160000000Y-61000000D01*
X165000000Y-63700000D02*
X162300000Y-61000000D01*
X165000000Y-68000000D02*
X165000000Y-63700000D01*
X151937500Y-72000000D02*
X156000000Y-72000000D01*
X151550000Y-75850000D02*
X156000000Y-72000000D01*
X156000000Y-72000000D02*
X158400000Y-69000000D01*
D31*
X125800000Y-84300000D02*
X127000000Y-85500000D01*
X125800000Y-83250000D02*
X125800000Y-84300000D01*
X127000000Y-85500000D02*
X127000000Y-89000000D01*
X108175001Y-77175001D02*
X107000000Y-76000000D01*
X115188589Y-77175001D02*
X108175001Y-77175001D01*
X118750000Y-76200000D02*
X116163590Y-76200000D01*
X116163590Y-76200000D02*
X115188589Y-77175001D01*
X120200000Y-74750000D02*
X120200000Y-73200000D01*
X120200000Y-73200000D02*
X120000000Y-73000000D01*
X109540000Y-74900000D02*
X109540000Y-76000000D01*
X111440000Y-73000000D02*
X109540000Y-74900000D01*
X120000000Y-73000000D02*
X111440000Y-73000000D01*
X121800000Y-74750000D02*
X121800000Y-71200000D01*
X121800000Y-71200000D02*
X125000000Y-68000000D01*
X125000000Y-68000000D02*
X128000000Y-68000000D01*
X128000000Y-68000000D02*
X128000000Y-65000000D01*
X122600000Y-74750000D02*
X122600000Y-71400000D01*
X122600000Y-71400000D02*
X125000000Y-69000000D01*
X125000000Y-69000000D02*
X139000000Y-69000000D01*
X139000000Y-66000000D02*
X139000000Y-69000000D01*
X139000000Y-66000000D02*
X138000000Y-65000000D01*
X137374979Y-71374979D02*
X139600001Y-73600001D01*
X125279199Y-71374979D02*
X137374979Y-71374979D01*
X139600001Y-73600001D02*
X140000000Y-74000000D01*
X123400000Y-73254178D02*
X125279199Y-71374979D01*
X123400000Y-74750000D02*
X123400000Y-73254178D01*
X138600001Y-74600001D02*
X139000000Y-75000000D01*
X125465599Y-71824989D02*
X135824989Y-71824989D01*
X135824989Y-71824989D02*
X138600001Y-74600001D01*
X124200000Y-73090588D02*
X125465599Y-71824989D01*
X124200000Y-74750000D02*
X124200000Y-73090588D01*
X134274999Y-72274999D02*
X137600001Y-75600001D01*
X125651999Y-72274999D02*
X134274999Y-72274999D01*
X125000000Y-72926998D02*
X125651999Y-72274999D01*
X137600001Y-75600001D02*
X138000000Y-76000000D01*
X125000000Y-74750000D02*
X125000000Y-72926998D01*
X125800000Y-73200000D02*
X126000000Y-73000000D01*
X125800000Y-74750000D02*
X125800000Y-73200000D01*
X129000000Y-81000000D02*
X129000000Y-81000000D01*
X129000000Y-81000000D02*
X127250000Y-81000000D01*
X124000000Y-94000000D02*
X123000000Y-94000000D01*
X123000000Y-94000000D02*
X123000000Y-95250000D01*
X150000000Y-67000000D02*
X150000000Y-65000000D01*
X147000000Y-70000000D02*
X150000000Y-67000000D01*
X140725001Y-81274999D02*
X140725001Y-70725001D01*
X137000000Y-85000000D02*
X140725001Y-81274999D01*
X130000000Y-85000000D02*
X137000000Y-85000000D01*
X129000000Y-84000000D02*
X130000000Y-85000000D01*
X140000000Y-70000000D02*
X147000000Y-70000000D01*
X128800000Y-81800000D02*
X129000000Y-82000000D01*
X140725001Y-70725001D02*
X140000000Y-70000000D01*
X127250000Y-81800000D02*
X128800000Y-81800000D01*
X129000000Y-82000000D02*
X129000000Y-84000000D01*
X159250000Y-97000000D02*
X156875000Y-97000000D01*
X127460000Y-97000000D02*
X125000000Y-97000000D01*
X125000000Y-97000000D02*
X123000000Y-99000000D01*
X123000000Y-99000000D02*
X123000000Y-97000000D01*
D32*
X142400000Y-63540000D02*
X139540000Y-63540000D01*
X139540000Y-63540000D02*
X139000000Y-63000000D01*
X139000000Y-63000000D02*
X139000000Y-55000000D01*
X139000000Y-55000000D02*
X138000000Y-55000000D01*
X136000000Y-53000000D02*
X136000000Y-49000000D01*
X138000000Y-55000000D02*
X136000000Y-53000000D01*
X131000000Y-49000000D02*
X131000000Y-54000000D01*
X131000000Y-54000000D02*
X136000000Y-59000000D01*
X136000000Y-59000000D02*
X136000000Y-64000000D01*
X133540000Y-63540000D02*
X131500000Y-63540000D01*
X134000000Y-64000000D02*
X133540000Y-63540000D01*
X136000000Y-64000000D02*
X134000000Y-64000000D01*
X120500000Y-63540000D02*
X125460000Y-63540000D01*
X126000000Y-63000000D02*
X126000000Y-49000000D01*
X125460000Y-63540000D02*
X126000000Y-63000000D01*
D31*
X121000000Y-73363590D02*
X121000000Y-73700000D01*
X121000000Y-73700000D02*
X121000000Y-74750000D01*
X120186401Y-72549991D02*
X121000000Y-73363590D01*
X117000000Y-69363590D02*
X120318205Y-72681795D01*
X117000000Y-65000000D02*
X117000000Y-69363590D01*
X105824999Y-75435999D02*
X111897408Y-69363590D01*
X111897408Y-69363590D02*
X117000000Y-69363590D01*
X105824999Y-77364999D02*
X105824999Y-75435999D01*
X107000000Y-78540000D02*
X105824999Y-77364999D01*
D32*
X109000000Y-63540000D02*
X114460000Y-63540000D01*
X114460000Y-63540000D02*
X117000000Y-61000000D01*
X117000000Y-61000000D02*
X117000000Y-58000000D01*
X121000000Y-54000000D02*
X121000000Y-49000000D01*
X117000000Y-58000000D02*
X121000000Y-54000000D01*
D31*
X125000000Y-83250000D02*
X125000000Y-89000000D01*
X125000000Y-89000000D02*
X126000000Y-90000000D01*
X147390000Y-90000000D02*
X161000000Y-76390000D01*
X126000000Y-90000000D02*
X147390000Y-90000000D01*
X149479990Y-90450010D02*
X160150001Y-79779999D01*
X124200000Y-88836410D02*
X125813600Y-90450010D01*
X160150001Y-79779999D02*
X161000000Y-78930000D01*
X125813600Y-90450010D02*
X149479990Y-90450010D01*
X124200000Y-83250000D02*
X124200000Y-88836410D01*
D33*
G36*
X105366492Y-74819705D02*
G01*
X105163411Y-74684010D01*
X104893158Y-74572068D01*
X104606260Y-74515000D01*
X104313740Y-74515000D01*
X104026842Y-74572068D01*
X103756589Y-74684010D01*
X103513368Y-74846525D01*
X103306525Y-75053368D01*
X103181822Y-75240000D01*
X103037333Y-75240000D01*
X103000000Y-75236323D01*
X102962667Y-75240000D01*
X102851014Y-75250997D01*
X102707753Y-75294454D01*
X102575724Y-75365026D01*
X102459999Y-75459999D01*
X102436201Y-75488997D01*
X101489002Y-76436196D01*
X101459999Y-76459999D01*
X101404871Y-76527174D01*
X101365026Y-76575724D01*
X101333356Y-76634974D01*
X101294454Y-76707754D01*
X101250997Y-76851015D01*
X101240000Y-76962668D01*
X101240000Y-76962678D01*
X101236324Y-77000000D01*
X101240000Y-77037323D01*
X101240001Y-79962667D01*
X101236324Y-80000000D01*
X101240001Y-80037333D01*
X101250998Y-80148986D01*
X101261922Y-80184999D01*
X101294454Y-80292246D01*
X101365026Y-80424276D01*
X101435169Y-80509744D01*
X101460000Y-80540001D01*
X101488998Y-80563799D01*
X106036205Y-85111008D01*
X106059999Y-85140001D01*
X106088992Y-85163795D01*
X106088996Y-85163799D01*
X106139417Y-85205178D01*
X106175724Y-85234974D01*
X106307753Y-85305546D01*
X106451014Y-85349003D01*
X106562667Y-85360000D01*
X106562676Y-85360000D01*
X106599999Y-85363676D01*
X106637322Y-85360000D01*
X122640000Y-85360000D01*
X122640001Y-87185197D01*
X121489003Y-88336196D01*
X121459999Y-88359999D01*
X121404871Y-88427174D01*
X121365026Y-88475724D01*
X121345674Y-88511928D01*
X121150000Y-88511928D01*
X121025518Y-88524188D01*
X120905820Y-88560498D01*
X120795506Y-88619463D01*
X120698815Y-88698815D01*
X120619463Y-88795506D01*
X120560498Y-88905820D01*
X120538487Y-88978380D01*
X120406632Y-88846525D01*
X120163411Y-88684010D01*
X119893158Y-88572068D01*
X119606260Y-88515000D01*
X119313740Y-88515000D01*
X119026842Y-88572068D01*
X118756589Y-88684010D01*
X118513368Y-88846525D01*
X118306525Y-89053368D01*
X118144010Y-89296589D01*
X118032068Y-89566842D01*
X117975000Y-89853740D01*
X117975000Y-90146260D01*
X118032068Y-90433158D01*
X118144010Y-90703411D01*
X118306525Y-90946632D01*
X118513368Y-91153475D01*
X118756589Y-91315990D01*
X119026842Y-91427932D01*
X119313740Y-91485000D01*
X119606260Y-91485000D01*
X119893158Y-91427932D01*
X120163411Y-91315990D01*
X120406632Y-91153475D01*
X120538487Y-91021620D01*
X120560498Y-91094180D01*
X120619463Y-91204494D01*
X120698815Y-91301185D01*
X120795506Y-91380537D01*
X120905820Y-91439502D01*
X121025518Y-91475812D01*
X121150000Y-91488072D01*
X122850000Y-91488072D01*
X122974482Y-91475812D01*
X123094180Y-91439502D01*
X123204494Y-91380537D01*
X123301185Y-91301185D01*
X123380537Y-91204494D01*
X123439502Y-91094180D01*
X123475812Y-90974482D01*
X123488072Y-90850000D01*
X123488072Y-89150000D01*
X123481891Y-89087239D01*
X123494454Y-89128656D01*
X123565026Y-89260686D01*
X123617214Y-89324276D01*
X123660000Y-89376411D01*
X123688998Y-89400209D01*
X125249801Y-90961013D01*
X125273599Y-90990011D01*
X125302597Y-91013809D01*
X125389323Y-91084984D01*
X125517460Y-91153475D01*
X125521353Y-91155556D01*
X125664614Y-91199013D01*
X125776267Y-91210010D01*
X125776277Y-91210010D01*
X125813599Y-91213686D01*
X125850922Y-91210010D01*
X149442668Y-91210010D01*
X149479990Y-91213686D01*
X149517312Y-91210010D01*
X149517323Y-91210010D01*
X149628976Y-91199013D01*
X149772237Y-91155556D01*
X149904266Y-91084984D01*
X150019991Y-90990011D01*
X150043794Y-90961007D01*
X154601061Y-86403740D01*
X159515000Y-86403740D01*
X159515000Y-86696260D01*
X159572068Y-86983158D01*
X159684010Y-87253411D01*
X159846525Y-87496632D01*
X160053368Y-87703475D01*
X160296589Y-87865990D01*
X160566842Y-87977932D01*
X160853740Y-88035000D01*
X161146260Y-88035000D01*
X161322215Y-88000000D01*
X161873000Y-88000000D01*
X161873000Y-94000000D01*
X161875440Y-94024776D01*
X161882667Y-94048601D01*
X161894403Y-94070557D01*
X161910197Y-94089803D01*
X161929443Y-94105597D01*
X161951399Y-94117333D01*
X161975224Y-94124560D01*
X162000000Y-94127000D01*
X168000000Y-94127000D01*
X168024776Y-94124560D01*
X168048601Y-94117333D01*
X168070557Y-94105597D01*
X168089803Y-94089803D01*
X168105597Y-94070557D01*
X168117333Y-94048601D01*
X168124560Y-94024776D01*
X168127000Y-94000000D01*
X168127000Y-88000000D01*
X168124560Y-87975224D01*
X168117333Y-87951399D01*
X168105597Y-87929443D01*
X168089803Y-87910197D01*
X168070557Y-87894403D01*
X168048601Y-87882667D01*
X168024776Y-87875440D01*
X168000000Y-87873000D01*
X162000000Y-87873000D01*
X161975224Y-87875440D01*
X161951399Y-87882667D01*
X161929443Y-87894403D01*
X161910197Y-87910197D01*
X161894403Y-87929443D01*
X161882667Y-87951399D01*
X161875440Y-87975224D01*
X161873000Y-88000000D01*
X161322215Y-88000000D01*
X161433158Y-87977932D01*
X161703411Y-87865990D01*
X161946632Y-87703475D01*
X162153475Y-87496632D01*
X162315990Y-87253411D01*
X162427932Y-86983158D01*
X162485000Y-86696260D01*
X162485000Y-86403740D01*
X162427932Y-86116842D01*
X162315990Y-85846589D01*
X162153475Y-85603368D01*
X161946632Y-85396525D01*
X161764466Y-85274805D01*
X161881355Y-85205178D01*
X162097588Y-85010269D01*
X162271641Y-84776920D01*
X162396825Y-84514099D01*
X162441476Y-84366890D01*
X162320155Y-84137000D01*
X161127000Y-84137000D01*
X161127000Y-84157000D01*
X160873000Y-84157000D01*
X160873000Y-84137000D01*
X159679845Y-84137000D01*
X159558524Y-84366890D01*
X159603175Y-84514099D01*
X159728359Y-84776920D01*
X159902412Y-85010269D01*
X160118645Y-85205178D01*
X160235534Y-85274805D01*
X160053368Y-85396525D01*
X159846525Y-85603368D01*
X159684010Y-85846589D01*
X159572068Y-86116842D01*
X159515000Y-86403740D01*
X154601061Y-86403740D01*
X159515000Y-81489802D01*
X159515000Y-81616260D01*
X159572068Y-81903158D01*
X159684010Y-82173411D01*
X159846525Y-82416632D01*
X160053368Y-82623475D01*
X160235534Y-82745195D01*
X160118645Y-82814822D01*
X159902412Y-83009731D01*
X159728359Y-83243080D01*
X159603175Y-83505901D01*
X159558524Y-83653110D01*
X159679845Y-83883000D01*
X160873000Y-83883000D01*
X160873000Y-83863000D01*
X161127000Y-83863000D01*
X161127000Y-83883000D01*
X162320155Y-83883000D01*
X162441476Y-83653110D01*
X162396825Y-83505901D01*
X162271641Y-83243080D01*
X162097588Y-83009731D01*
X161881355Y-82814822D01*
X161764466Y-82745195D01*
X161946632Y-82623475D01*
X162153475Y-82416632D01*
X162315990Y-82173411D01*
X162427932Y-81903158D01*
X162485000Y-81616260D01*
X162485000Y-81323740D01*
X162427932Y-81036842D01*
X162315990Y-80766589D01*
X162153475Y-80523368D01*
X161946632Y-80316525D01*
X161772240Y-80200000D01*
X161946632Y-80083475D01*
X162153475Y-79876632D01*
X162315990Y-79633411D01*
X162427932Y-79363158D01*
X162485000Y-79076260D01*
X162485000Y-78783740D01*
X162427932Y-78496842D01*
X162315990Y-78226589D01*
X162153475Y-77983368D01*
X161946632Y-77776525D01*
X161772240Y-77660000D01*
X161946632Y-77543475D01*
X162153475Y-77336632D01*
X162315990Y-77093411D01*
X162427932Y-76823158D01*
X162485000Y-76536260D01*
X162485000Y-76243740D01*
X162427932Y-75956842D01*
X162315990Y-75686589D01*
X162153475Y-75443368D01*
X162021620Y-75311513D01*
X162094180Y-75289502D01*
X162204494Y-75230537D01*
X162301185Y-75151185D01*
X162380537Y-75054494D01*
X162439502Y-74944180D01*
X162475812Y-74824482D01*
X162488072Y-74700000D01*
X162488072Y-73000000D01*
X162475812Y-72875518D01*
X162439502Y-72755820D01*
X162380537Y-72645506D01*
X162301185Y-72548815D01*
X162204494Y-72469463D01*
X162094180Y-72410498D01*
X161974482Y-72374188D01*
X161850000Y-72361928D01*
X160150000Y-72361928D01*
X160025518Y-72374188D01*
X159905820Y-72410498D01*
X159795506Y-72469463D01*
X159698815Y-72548815D01*
X159619463Y-72645506D01*
X159560498Y-72755820D01*
X159524188Y-72875518D01*
X159511928Y-73000000D01*
X159511928Y-74700000D01*
X159524188Y-74824482D01*
X159560498Y-74944180D01*
X159619463Y-75054494D01*
X159698815Y-75151185D01*
X159795506Y-75230537D01*
X159905820Y-75289502D01*
X159978380Y-75311513D01*
X159846525Y-75443368D01*
X159684010Y-75686589D01*
X159572068Y-75956842D01*
X159515000Y-76243740D01*
X159515000Y-76536260D01*
X159558790Y-76756408D01*
X147075199Y-89240000D01*
X128007538Y-89240000D01*
X128035000Y-89101939D01*
X128035000Y-88898061D01*
X127995226Y-88698102D01*
X127917205Y-88509744D01*
X127803937Y-88340226D01*
X127760000Y-88296289D01*
X127760000Y-85537322D01*
X127763676Y-85499999D01*
X127760000Y-85462676D01*
X127760000Y-85462667D01*
X127749003Y-85351014D01*
X127705546Y-85207753D01*
X127634974Y-85075724D01*
X127540001Y-84959999D01*
X127511004Y-84936202D01*
X126705158Y-84130357D01*
X126713072Y-84050000D01*
X126713072Y-82713072D01*
X128050000Y-82713072D01*
X128174482Y-82700812D01*
X128240000Y-82680937D01*
X128240001Y-83962668D01*
X128236324Y-84000000D01*
X128240001Y-84037333D01*
X128250998Y-84148986D01*
X128259109Y-84175724D01*
X128294454Y-84292246D01*
X128365026Y-84424276D01*
X128436201Y-84511002D01*
X128460000Y-84540001D01*
X128488998Y-84563799D01*
X129436201Y-85511003D01*
X129459999Y-85540001D01*
X129488997Y-85563799D01*
X129575724Y-85634974D01*
X129707753Y-85705546D01*
X129851014Y-85749003D01*
X130000000Y-85763677D01*
X130037333Y-85760000D01*
X136962678Y-85760000D01*
X137000000Y-85763676D01*
X137037322Y-85760000D01*
X137037333Y-85760000D01*
X137148986Y-85749003D01*
X137292247Y-85705546D01*
X137424276Y-85634974D01*
X137540001Y-85540001D01*
X137563804Y-85510997D01*
X141236005Y-81838797D01*
X141265002Y-81815000D01*
X141291333Y-81782916D01*
X141359975Y-81699276D01*
X141430547Y-81567246D01*
X141430547Y-81567245D01*
X141474004Y-81423985D01*
X141485001Y-81312332D01*
X141485001Y-81312322D01*
X141488677Y-81274999D01*
X141485001Y-81237676D01*
X141485001Y-76850000D01*
X143311928Y-76850000D01*
X143324188Y-76974482D01*
X143360498Y-77094180D01*
X143419463Y-77204494D01*
X143498815Y-77301185D01*
X143595506Y-77380537D01*
X143705820Y-77439502D01*
X143825518Y-77475812D01*
X143950000Y-77488072D01*
X144414250Y-77485000D01*
X144573000Y-77326250D01*
X144573000Y-75977000D01*
X143473750Y-75977000D01*
X143315000Y-76135750D01*
X143311928Y-76850000D01*
X141485001Y-76850000D01*
X141485001Y-74850000D01*
X143311928Y-74850000D01*
X143315000Y-75564250D01*
X143473750Y-75723000D01*
X144573000Y-75723000D01*
X144573000Y-74373750D01*
X144414250Y-74215000D01*
X143950000Y-74211928D01*
X143825518Y-74224188D01*
X143705820Y-74260498D01*
X143595506Y-74319463D01*
X143498815Y-74398815D01*
X143419463Y-74495506D01*
X143360498Y-74605820D01*
X143324188Y-74725518D01*
X143311928Y-74850000D01*
X141485001Y-74850000D01*
X141485001Y-72700000D01*
X142936928Y-72700000D01*
X142949188Y-72824482D01*
X142985498Y-72944180D01*
X143044463Y-73054494D01*
X143123815Y-73151185D01*
X143220506Y-73230537D01*
X143330820Y-73289502D01*
X143450518Y-73325812D01*
X143575000Y-73338072D01*
X143776750Y-73335000D01*
X143935500Y-73176250D01*
X143935500Y-72127000D01*
X143098750Y-72127000D01*
X142940000Y-72285750D01*
X142936928Y-72700000D01*
X141485001Y-72700000D01*
X141485001Y-70762323D01*
X141485230Y-70760000D01*
X143238210Y-70760000D01*
X143220506Y-70769463D01*
X143123815Y-70848815D01*
X143044463Y-70945506D01*
X142985498Y-71055820D01*
X142949188Y-71175518D01*
X142936928Y-71300000D01*
X142940000Y-71714250D01*
X143098750Y-71873000D01*
X143935500Y-71873000D01*
X143935500Y-71853000D01*
X144189500Y-71853000D01*
X144189500Y-71873000D01*
X144209500Y-71873000D01*
X144209500Y-72127000D01*
X144189500Y-72127000D01*
X144189500Y-73176250D01*
X144348250Y-73335000D01*
X144550000Y-73338072D01*
X144674482Y-73325812D01*
X144794180Y-73289502D01*
X144904494Y-73230537D01*
X145001185Y-73151185D01*
X145064992Y-73073436D01*
X145070208Y-73079792D01*
X145203836Y-73189458D01*
X145356291Y-73270947D01*
X145521715Y-73321128D01*
X145693750Y-73338072D01*
X146181250Y-73338072D01*
X146353285Y-73321128D01*
X146518709Y-73270947D01*
X146671164Y-73189458D01*
X146804792Y-73079792D01*
X146914458Y-72946164D01*
X146979717Y-72824073D01*
X146965000Y-72898061D01*
X146965000Y-72960198D01*
X146489002Y-73436196D01*
X146459999Y-73459999D01*
X146416851Y-73512576D01*
X146365026Y-73575724D01*
X146322205Y-73655836D01*
X146294454Y-73707754D01*
X146250997Y-73851015D01*
X146240000Y-73962668D01*
X146240000Y-73962678D01*
X146236324Y-74000000D01*
X146240000Y-74037323D01*
X146240000Y-74212913D01*
X146125518Y-74224188D01*
X146005820Y-74260498D01*
X145895506Y-74319463D01*
X145850000Y-74356809D01*
X145804494Y-74319463D01*
X145694180Y-74260498D01*
X145574482Y-74224188D01*
X145450000Y-74211928D01*
X144985750Y-74215000D01*
X144827000Y-74373750D01*
X144827000Y-75723000D01*
X144847000Y-75723000D01*
X144847000Y-75977000D01*
X144827000Y-75977000D01*
X144827000Y-77326250D01*
X144985750Y-77485000D01*
X145450000Y-77488072D01*
X145574482Y-77475812D01*
X145694180Y-77439502D01*
X145804494Y-77380537D01*
X145850000Y-77343191D01*
X145895506Y-77380537D01*
X146005820Y-77439502D01*
X146125518Y-77475812D01*
X146240001Y-77487087D01*
X146240000Y-80511928D01*
X145100000Y-80511928D01*
X144975518Y-80524188D01*
X144855820Y-80560498D01*
X144745506Y-80619463D01*
X144648815Y-80698815D01*
X144569463Y-80795506D01*
X144510498Y-80905820D01*
X144474188Y-81025518D01*
X144461928Y-81150000D01*
X144461928Y-83150000D01*
X144474188Y-83274482D01*
X144510498Y-83394180D01*
X144569463Y-83504494D01*
X144648815Y-83601185D01*
X144745506Y-83680537D01*
X144855820Y-83739502D01*
X144975518Y-83775812D01*
X145100000Y-83788072D01*
X148900000Y-83788072D01*
X149024482Y-83775812D01*
X149144180Y-83739502D01*
X149254494Y-83680537D01*
X149351185Y-83601185D01*
X149430537Y-83504494D01*
X149489502Y-83394180D01*
X149525812Y-83274482D01*
X149538072Y-83150000D01*
X149538072Y-81150000D01*
X149525812Y-81025518D01*
X149489502Y-80905820D01*
X149430537Y-80795506D01*
X149351185Y-80698815D01*
X149254494Y-80619463D01*
X149144180Y-80560498D01*
X149024482Y-80524188D01*
X148900000Y-80511928D01*
X147760000Y-80511928D01*
X147760000Y-77487087D01*
X147874482Y-77475812D01*
X147994180Y-77439502D01*
X148104494Y-77380537D01*
X148150000Y-77343191D01*
X148195506Y-77380537D01*
X148305820Y-77439502D01*
X148425518Y-77475812D01*
X148550000Y-77488072D01*
X150050000Y-77488072D01*
X150174482Y-77475812D01*
X150294180Y-77439502D01*
X150404494Y-77380537D01*
X150501185Y-77301185D01*
X150555501Y-77235000D01*
X151431762Y-77235000D01*
X151449657Y-77238078D01*
X151567974Y-77235000D01*
X151618037Y-77235000D01*
X151636007Y-77233230D01*
X151722385Y-77230983D01*
X151771444Y-77219891D01*
X151821507Y-77214960D01*
X151904208Y-77189873D01*
X151988489Y-77170817D01*
X152034441Y-77150367D01*
X152082581Y-77135764D01*
X152158803Y-77095022D01*
X152237743Y-77059892D01*
X152278820Y-77030872D01*
X152323188Y-77007157D01*
X152389991Y-76952333D01*
X152404729Y-76941921D01*
X152442565Y-76909187D01*
X152534081Y-76834081D01*
X152545603Y-76820041D01*
X156847631Y-73098063D01*
X156896245Y-73064695D01*
X156937928Y-73021958D01*
X156984081Y-72984081D01*
X157032956Y-72924527D01*
X157039000Y-72918330D01*
X157044857Y-72911008D01*
X157098397Y-72854608D01*
X157125244Y-72812074D01*
X157157157Y-72773188D01*
X157161271Y-72765491D01*
X159065665Y-70385000D01*
X163931971Y-70385000D01*
X164000000Y-70391700D01*
X164068029Y-70385000D01*
X164068037Y-70385000D01*
X164271507Y-70364960D01*
X164532581Y-70285764D01*
X164773188Y-70157157D01*
X164984081Y-69984081D01*
X165027454Y-69931231D01*
X165831686Y-69127000D01*
X169340000Y-69127000D01*
X169340001Y-99340000D01*
X123734801Y-99340000D01*
X125314802Y-97760000D01*
X126121687Y-97760000D01*
X126267688Y-97978505D01*
X126481495Y-98192312D01*
X126732905Y-98360299D01*
X127012257Y-98476011D01*
X127308816Y-98535000D01*
X127611184Y-98535000D01*
X127907743Y-98476011D01*
X128187095Y-98360299D01*
X128438505Y-98192312D01*
X128504944Y-98125873D01*
X128510498Y-98144180D01*
X128569463Y-98254494D01*
X128648815Y-98351185D01*
X128745506Y-98430537D01*
X128855820Y-98489502D01*
X128975518Y-98525812D01*
X129100000Y-98538072D01*
X130900000Y-98538072D01*
X131024482Y-98525812D01*
X131144180Y-98489502D01*
X131254494Y-98430537D01*
X131351185Y-98351185D01*
X131430537Y-98254494D01*
X131489502Y-98144180D01*
X131525812Y-98024482D01*
X131538072Y-97900000D01*
X131538072Y-97760000D01*
X137882678Y-97760000D01*
X137920000Y-97763676D01*
X137957322Y-97760000D01*
X137957333Y-97760000D01*
X138068986Y-97749003D01*
X138212247Y-97705546D01*
X138344276Y-97634974D01*
X138460001Y-97540001D01*
X138483804Y-97510998D01*
X138506729Y-97488072D01*
X139770000Y-97488072D01*
X139894482Y-97475812D01*
X140014180Y-97439502D01*
X140124494Y-97380537D01*
X140221185Y-97301185D01*
X140300537Y-97204494D01*
X140359502Y-97094180D01*
X140383966Y-97013534D01*
X140459731Y-97097588D01*
X140693080Y-97271641D01*
X140955901Y-97396825D01*
X141103110Y-97441476D01*
X141333000Y-97320155D01*
X141333000Y-96127000D01*
X141313000Y-96127000D01*
X141313000Y-95873000D01*
X141333000Y-95873000D01*
X141333000Y-94679845D01*
X141587000Y-94679845D01*
X141587000Y-95873000D01*
X141607000Y-95873000D01*
X141607000Y-96127000D01*
X141587000Y-96127000D01*
X141587000Y-97320155D01*
X141816890Y-97441476D01*
X141964099Y-97396825D01*
X142226920Y-97271641D01*
X142460269Y-97097588D01*
X142655178Y-96881355D01*
X142724805Y-96764466D01*
X142846525Y-96946632D01*
X143053368Y-97153475D01*
X143296589Y-97315990D01*
X143566842Y-97427932D01*
X143853740Y-97485000D01*
X144146260Y-97485000D01*
X144433158Y-97427932D01*
X144703411Y-97315990D01*
X144946632Y-97153475D01*
X145153475Y-96946632D01*
X145270000Y-96772240D01*
X145386525Y-96946632D01*
X145593368Y-97153475D01*
X145836589Y-97315990D01*
X146106842Y-97427932D01*
X146393740Y-97485000D01*
X146686260Y-97485000D01*
X146973158Y-97427932D01*
X147243411Y-97315990D01*
X147486632Y-97153475D01*
X147693475Y-96946632D01*
X147810000Y-96772240D01*
X147926525Y-96946632D01*
X148133368Y-97153475D01*
X148376589Y-97315990D01*
X148646842Y-97427932D01*
X148933740Y-97485000D01*
X149226260Y-97485000D01*
X149276533Y-97475000D01*
X153961928Y-97475000D01*
X153974188Y-97599482D01*
X154010498Y-97719180D01*
X154069463Y-97829494D01*
X154148815Y-97926185D01*
X154245506Y-98005537D01*
X154355820Y-98064502D01*
X154475518Y-98100812D01*
X154600000Y-98113072D01*
X154839250Y-98110000D01*
X154998000Y-97951250D01*
X154998000Y-97127000D01*
X154123750Y-97127000D01*
X153965000Y-97285750D01*
X153961928Y-97475000D01*
X149276533Y-97475000D01*
X149513158Y-97427932D01*
X149783411Y-97315990D01*
X150026632Y-97153475D01*
X150233475Y-96946632D01*
X150395990Y-96703411D01*
X150469889Y-96525000D01*
X153961928Y-96525000D01*
X153965000Y-96714250D01*
X154123750Y-96873000D01*
X154998000Y-96873000D01*
X154998000Y-96048750D01*
X155252000Y-96048750D01*
X155252000Y-96873000D01*
X155272000Y-96873000D01*
X155272000Y-97127000D01*
X155252000Y-97127000D01*
X155252000Y-97951250D01*
X155410750Y-98110000D01*
X155650000Y-98113072D01*
X155774482Y-98100812D01*
X155894180Y-98064502D01*
X156004494Y-98005537D01*
X156077161Y-97945901D01*
X156101058Y-97965512D01*
X156252433Y-98046423D01*
X156416684Y-98096248D01*
X156587500Y-98113072D01*
X157162500Y-98113072D01*
X157333316Y-98096248D01*
X157497567Y-98046423D01*
X157648942Y-97965512D01*
X157781623Y-97856623D01*
X157860920Y-97760000D01*
X158264080Y-97760000D01*
X158343377Y-97856623D01*
X158476058Y-97965512D01*
X158627433Y-98046423D01*
X158791684Y-98096248D01*
X158962500Y-98113072D01*
X159537500Y-98113072D01*
X159708316Y-98096248D01*
X159872567Y-98046423D01*
X160023942Y-97965512D01*
X160125000Y-97882575D01*
X160226058Y-97965512D01*
X160377433Y-98046423D01*
X160541684Y-98096248D01*
X160712500Y-98113072D01*
X161287500Y-98113072D01*
X161458316Y-98096248D01*
X161622567Y-98046423D01*
X161773942Y-97965512D01*
X161906623Y-97856623D01*
X161985920Y-97760000D01*
X164296289Y-97760000D01*
X164340226Y-97803937D01*
X164509744Y-97917205D01*
X164698102Y-97995226D01*
X164898061Y-98035000D01*
X165101939Y-98035000D01*
X165301898Y-97995226D01*
X165490256Y-97917205D01*
X165659774Y-97803937D01*
X165803937Y-97659774D01*
X165917205Y-97490256D01*
X165995226Y-97301898D01*
X166035000Y-97101939D01*
X166035000Y-96898061D01*
X165995226Y-96698102D01*
X165917205Y-96509744D01*
X165803937Y-96340226D01*
X165659774Y-96196063D01*
X165490256Y-96082795D01*
X165301898Y-96004774D01*
X165101939Y-95965000D01*
X164898061Y-95965000D01*
X164698102Y-96004774D01*
X164509744Y-96082795D01*
X164340226Y-96196063D01*
X164296289Y-96240000D01*
X161985920Y-96240000D01*
X161906623Y-96143377D01*
X161773942Y-96034488D01*
X161622567Y-95953577D01*
X161458316Y-95903752D01*
X161287500Y-95886928D01*
X160712500Y-95886928D01*
X160541684Y-95903752D01*
X160377433Y-95953577D01*
X160226058Y-96034488D01*
X160125000Y-96117425D01*
X160023942Y-96034488D01*
X159872567Y-95953577D01*
X159708316Y-95903752D01*
X159537500Y-95886928D01*
X158962500Y-95886928D01*
X158791684Y-95903752D01*
X158627433Y-95953577D01*
X158476058Y-96034488D01*
X158343377Y-96143377D01*
X158264080Y-96240000D01*
X157860920Y-96240000D01*
X157781623Y-96143377D01*
X157648942Y-96034488D01*
X157497567Y-95953577D01*
X157333316Y-95903752D01*
X157162500Y-95886928D01*
X156587500Y-95886928D01*
X156416684Y-95903752D01*
X156252433Y-95953577D01*
X156101058Y-96034488D01*
X156077161Y-96054099D01*
X156004494Y-95994463D01*
X155894180Y-95935498D01*
X155774482Y-95899188D01*
X155650000Y-95886928D01*
X155410750Y-95890000D01*
X155252000Y-96048750D01*
X154998000Y-96048750D01*
X154839250Y-95890000D01*
X154600000Y-95886928D01*
X154475518Y-95899188D01*
X154355820Y-95935498D01*
X154245506Y-95994463D01*
X154148815Y-96073815D01*
X154069463Y-96170506D01*
X154010498Y-96280820D01*
X153974188Y-96400518D01*
X153961928Y-96525000D01*
X150469889Y-96525000D01*
X150507932Y-96433158D01*
X150565000Y-96146260D01*
X150565000Y-95853740D01*
X150507932Y-95566842D01*
X150395990Y-95296589D01*
X150233475Y-95053368D01*
X150026632Y-94846525D01*
X149783411Y-94684010D01*
X149513158Y-94572068D01*
X149226260Y-94515000D01*
X148933740Y-94515000D01*
X148646842Y-94572068D01*
X148376589Y-94684010D01*
X148133368Y-94846525D01*
X147926525Y-95053368D01*
X147810000Y-95227760D01*
X147693475Y-95053368D01*
X147486632Y-94846525D01*
X147243411Y-94684010D01*
X146973158Y-94572068D01*
X146686260Y-94515000D01*
X146393740Y-94515000D01*
X146106842Y-94572068D01*
X145836589Y-94684010D01*
X145593368Y-94846525D01*
X145386525Y-95053368D01*
X145270000Y-95227760D01*
X145153475Y-95053368D01*
X144946632Y-94846525D01*
X144703411Y-94684010D01*
X144433158Y-94572068D01*
X144146260Y-94515000D01*
X143853740Y-94515000D01*
X143566842Y-94572068D01*
X143296589Y-94684010D01*
X143053368Y-94846525D01*
X142846525Y-95053368D01*
X142724805Y-95235534D01*
X142655178Y-95118645D01*
X142460269Y-94902412D01*
X142226920Y-94728359D01*
X141964099Y-94603175D01*
X141816890Y-94558524D01*
X141587000Y-94679845D01*
X141333000Y-94679845D01*
X141103110Y-94558524D01*
X140955901Y-94603175D01*
X140693080Y-94728359D01*
X140459731Y-94902412D01*
X140383966Y-94986466D01*
X140359502Y-94905820D01*
X140300537Y-94795506D01*
X140221185Y-94698815D01*
X140124494Y-94619463D01*
X140014180Y-94560498D01*
X139894482Y-94524188D01*
X139770000Y-94511928D01*
X138070000Y-94511928D01*
X137945518Y-94524188D01*
X137825820Y-94560498D01*
X137715506Y-94619463D01*
X137618815Y-94698815D01*
X137539463Y-94795506D01*
X137480498Y-94905820D01*
X137444188Y-95025518D01*
X137431928Y-95150000D01*
X137431928Y-96240000D01*
X131538072Y-96240000D01*
X131538072Y-96100000D01*
X131525812Y-95975518D01*
X131489502Y-95855820D01*
X131430537Y-95745506D01*
X131351185Y-95648815D01*
X131254494Y-95569463D01*
X131144180Y-95510498D01*
X131024482Y-95474188D01*
X130900000Y-95461928D01*
X129100000Y-95461928D01*
X128975518Y-95474188D01*
X128855820Y-95510498D01*
X128745506Y-95569463D01*
X128648815Y-95648815D01*
X128569463Y-95745506D01*
X128510498Y-95855820D01*
X128504944Y-95874127D01*
X128438505Y-95807688D01*
X128187095Y-95639701D01*
X127907743Y-95523989D01*
X127611184Y-95465000D01*
X127308816Y-95465000D01*
X127012257Y-95523989D01*
X126732905Y-95639701D01*
X126481495Y-95807688D01*
X126267688Y-96021495D01*
X126121687Y-96240000D01*
X125037322Y-96240000D01*
X124999999Y-96236324D01*
X124962676Y-96240000D01*
X124962667Y-96240000D01*
X124851014Y-96250997D01*
X124715029Y-96292247D01*
X124707753Y-96294454D01*
X124575723Y-96365026D01*
X124499681Y-96427433D01*
X124459999Y-96459999D01*
X124436201Y-96488997D01*
X124113072Y-96812126D01*
X124113072Y-96712500D01*
X124096248Y-96541684D01*
X124046423Y-96377433D01*
X123965512Y-96226058D01*
X123882575Y-96125000D01*
X123965512Y-96023942D01*
X124046423Y-95872567D01*
X124096248Y-95708316D01*
X124113072Y-95537500D01*
X124113072Y-95032786D01*
X124301898Y-94995226D01*
X124490256Y-94917205D01*
X124659774Y-94803937D01*
X124803937Y-94659774D01*
X124917205Y-94490256D01*
X124995226Y-94301898D01*
X125035000Y-94101939D01*
X125035000Y-93898061D01*
X124995226Y-93698102D01*
X124917205Y-93509744D01*
X124803937Y-93340226D01*
X124659774Y-93196063D01*
X124490256Y-93082795D01*
X124301898Y-93004774D01*
X124101939Y-92965000D01*
X123898061Y-92965000D01*
X123698102Y-93004774D01*
X123509744Y-93082795D01*
X123340226Y-93196063D01*
X123296289Y-93240000D01*
X123037333Y-93240000D01*
X123000000Y-93236323D01*
X122962667Y-93240000D01*
X122851014Y-93250997D01*
X122707753Y-93294454D01*
X122575724Y-93365026D01*
X122459999Y-93459999D01*
X122365026Y-93575724D01*
X122294454Y-93707753D01*
X122250997Y-93851014D01*
X122236323Y-94000000D01*
X122240000Y-94037333D01*
X122240000Y-94264080D01*
X122143377Y-94343377D01*
X122034488Y-94476058D01*
X121953577Y-94627433D01*
X121903752Y-94791684D01*
X121886928Y-94962500D01*
X121886928Y-95537500D01*
X121903752Y-95708316D01*
X121953577Y-95872567D01*
X122034488Y-96023942D01*
X122117425Y-96125000D01*
X122034488Y-96226058D01*
X121953577Y-96377433D01*
X121903752Y-96541684D01*
X121886928Y-96712500D01*
X121886928Y-97287500D01*
X121903752Y-97458316D01*
X121953577Y-97622567D01*
X122034488Y-97773942D01*
X122143377Y-97906623D01*
X122240001Y-97985920D01*
X122240000Y-98962677D01*
X122236324Y-99000000D01*
X122240000Y-99037322D01*
X122240000Y-99037332D01*
X122250997Y-99148985D01*
X122294454Y-99292246D01*
X122319979Y-99340000D01*
X100660000Y-99340000D01*
X100660000Y-96853740D01*
X108435000Y-96853740D01*
X108435000Y-97146260D01*
X108492068Y-97433158D01*
X108604010Y-97703411D01*
X108766525Y-97946632D01*
X108973368Y-98153475D01*
X109216589Y-98315990D01*
X109486842Y-98427932D01*
X109773740Y-98485000D01*
X110066260Y-98485000D01*
X110353158Y-98427932D01*
X110623411Y-98315990D01*
X110866632Y-98153475D01*
X111073475Y-97946632D01*
X111190000Y-97772240D01*
X111306525Y-97946632D01*
X111513368Y-98153475D01*
X111756589Y-98315990D01*
X112026842Y-98427932D01*
X112313740Y-98485000D01*
X112606260Y-98485000D01*
X112893158Y-98427932D01*
X113163411Y-98315990D01*
X113406632Y-98153475D01*
X113538487Y-98021620D01*
X113560498Y-98094180D01*
X113619463Y-98204494D01*
X113698815Y-98301185D01*
X113795506Y-98380537D01*
X113905820Y-98439502D01*
X114025518Y-98475812D01*
X114150000Y-98488072D01*
X114714250Y-98485000D01*
X114873000Y-98326250D01*
X114873000Y-97127000D01*
X115127000Y-97127000D01*
X115127000Y-98326250D01*
X115285750Y-98485000D01*
X115850000Y-98488072D01*
X115974482Y-98475812D01*
X116094180Y-98439502D01*
X116204494Y-98380537D01*
X116301185Y-98301185D01*
X116380537Y-98204494D01*
X116439502Y-98094180D01*
X116475812Y-97974482D01*
X116488072Y-97850000D01*
X116485000Y-97285750D01*
X116326250Y-97127000D01*
X115127000Y-97127000D01*
X114873000Y-97127000D01*
X114853000Y-97127000D01*
X114853000Y-96873000D01*
X114873000Y-96873000D01*
X114873000Y-95673750D01*
X115127000Y-95673750D01*
X115127000Y-96873000D01*
X116326250Y-96873000D01*
X116485000Y-96714250D01*
X116488072Y-96150000D01*
X116475812Y-96025518D01*
X116439502Y-95905820D01*
X116380537Y-95795506D01*
X116301185Y-95698815D01*
X116204494Y-95619463D01*
X116094180Y-95560498D01*
X115974482Y-95524188D01*
X115850000Y-95511928D01*
X115285750Y-95515000D01*
X115127000Y-95673750D01*
X114873000Y-95673750D01*
X114714250Y-95515000D01*
X114150000Y-95511928D01*
X114025518Y-95524188D01*
X113905820Y-95560498D01*
X113795506Y-95619463D01*
X113698815Y-95698815D01*
X113619463Y-95795506D01*
X113560498Y-95905820D01*
X113538487Y-95978380D01*
X113406632Y-95846525D01*
X113163411Y-95684010D01*
X112893158Y-95572068D01*
X112606260Y-95515000D01*
X112313740Y-95515000D01*
X112026842Y-95572068D01*
X111756589Y-95684010D01*
X111513368Y-95846525D01*
X111306525Y-96053368D01*
X111190000Y-96227760D01*
X111073475Y-96053368D01*
X110866632Y-95846525D01*
X110623411Y-95684010D01*
X110353158Y-95572068D01*
X110066260Y-95515000D01*
X109773740Y-95515000D01*
X109486842Y-95572068D01*
X109216589Y-95684010D01*
X108973368Y-95846525D01*
X108766525Y-96053368D01*
X108604010Y-96296589D01*
X108492068Y-96566842D01*
X108435000Y-96853740D01*
X100660000Y-96853740D01*
X100660000Y-88000000D01*
X103873000Y-88000000D01*
X103873000Y-94000000D01*
X103875440Y-94024776D01*
X103882667Y-94048601D01*
X103894403Y-94070557D01*
X103910197Y-94089803D01*
X103929443Y-94105597D01*
X103951399Y-94117333D01*
X103975224Y-94124560D01*
X104000000Y-94127000D01*
X111000000Y-94127000D01*
X111024776Y-94124560D01*
X111048601Y-94117333D01*
X111070557Y-94105597D01*
X111089803Y-94089803D01*
X111105597Y-94070557D01*
X111117333Y-94048601D01*
X111124560Y-94024776D01*
X111127000Y-94000000D01*
X111127000Y-93556414D01*
X111196063Y-93659774D01*
X111340226Y-93803937D01*
X111509744Y-93917205D01*
X111698102Y-93995226D01*
X111898061Y-94035000D01*
X112101939Y-94035000D01*
X112301898Y-93995226D01*
X112490256Y-93917205D01*
X112659774Y-93803937D01*
X112703711Y-93760000D01*
X117296289Y-93760000D01*
X117340226Y-93803937D01*
X117509744Y-93917205D01*
X117698102Y-93995226D01*
X117898061Y-94035000D01*
X118101939Y-94035000D01*
X118301898Y-93995226D01*
X118490256Y-93917205D01*
X118659774Y-93803937D01*
X118803937Y-93659774D01*
X118917205Y-93490256D01*
X118995226Y-93301898D01*
X119035000Y-93101939D01*
X119035000Y-92898061D01*
X118995226Y-92698102D01*
X118917205Y-92509744D01*
X118803937Y-92340226D01*
X118659774Y-92196063D01*
X118490256Y-92082795D01*
X118301898Y-92004774D01*
X118101939Y-91965000D01*
X117898061Y-91965000D01*
X117698102Y-92004774D01*
X117509744Y-92082795D01*
X117340226Y-92196063D01*
X117296289Y-92240000D01*
X112703711Y-92240000D01*
X112659774Y-92196063D01*
X112490256Y-92082795D01*
X112301898Y-92004774D01*
X112101939Y-91965000D01*
X111898061Y-91965000D01*
X111698102Y-92004774D01*
X111509744Y-92082795D01*
X111340226Y-92196063D01*
X111196063Y-92340226D01*
X111127000Y-92443586D01*
X111127000Y-88000000D01*
X111124560Y-87975224D01*
X111117333Y-87951399D01*
X111105597Y-87929443D01*
X111089803Y-87910197D01*
X111070557Y-87894403D01*
X111048601Y-87882667D01*
X111024776Y-87875440D01*
X111000000Y-87873000D01*
X104000000Y-87873000D01*
X103975224Y-87875440D01*
X103951399Y-87882667D01*
X103929443Y-87894403D01*
X103910197Y-87910197D01*
X103894403Y-87929443D01*
X103882667Y-87951399D01*
X103875440Y-87975224D01*
X103873000Y-88000000D01*
X100660000Y-88000000D01*
X100660000Y-69127000D01*
X111059196Y-69127000D01*
X105366492Y-74819705D01*
G37*
X105366492Y-74819705D02*
X105163411Y-74684010D01*
X104893158Y-74572068D01*
X104606260Y-74515000D01*
X104313740Y-74515000D01*
X104026842Y-74572068D01*
X103756589Y-74684010D01*
X103513368Y-74846525D01*
X103306525Y-75053368D01*
X103181822Y-75240000D01*
X103037333Y-75240000D01*
X103000000Y-75236323D01*
X102962667Y-75240000D01*
X102851014Y-75250997D01*
X102707753Y-75294454D01*
X102575724Y-75365026D01*
X102459999Y-75459999D01*
X102436201Y-75488997D01*
X101489002Y-76436196D01*
X101459999Y-76459999D01*
X101404871Y-76527174D01*
X101365026Y-76575724D01*
X101333356Y-76634974D01*
X101294454Y-76707754D01*
X101250997Y-76851015D01*
X101240000Y-76962668D01*
X101240000Y-76962678D01*
X101236324Y-77000000D01*
X101240000Y-77037323D01*
X101240001Y-79962667D01*
X101236324Y-80000000D01*
X101240001Y-80037333D01*
X101250998Y-80148986D01*
X101261922Y-80184999D01*
X101294454Y-80292246D01*
X101365026Y-80424276D01*
X101435169Y-80509744D01*
X101460000Y-80540001D01*
X101488998Y-80563799D01*
X106036205Y-85111008D01*
X106059999Y-85140001D01*
X106088992Y-85163795D01*
X106088996Y-85163799D01*
X106139417Y-85205178D01*
X106175724Y-85234974D01*
X106307753Y-85305546D01*
X106451014Y-85349003D01*
X106562667Y-85360000D01*
X106562676Y-85360000D01*
X106599999Y-85363676D01*
X106637322Y-85360000D01*
X122640000Y-85360000D01*
X122640001Y-87185197D01*
X121489003Y-88336196D01*
X121459999Y-88359999D01*
X121404871Y-88427174D01*
X121365026Y-88475724D01*
X121345674Y-88511928D01*
X121150000Y-88511928D01*
X121025518Y-88524188D01*
X120905820Y-88560498D01*
X120795506Y-88619463D01*
X120698815Y-88698815D01*
X120619463Y-88795506D01*
X120560498Y-88905820D01*
X120538487Y-88978380D01*
X120406632Y-88846525D01*
X120163411Y-88684010D01*
X119893158Y-88572068D01*
X119606260Y-88515000D01*
X119313740Y-88515000D01*
X119026842Y-88572068D01*
X118756589Y-88684010D01*
X118513368Y-88846525D01*
X118306525Y-89053368D01*
X118144010Y-89296589D01*
X118032068Y-89566842D01*
X117975000Y-89853740D01*
X117975000Y-90146260D01*
X118032068Y-90433158D01*
X118144010Y-90703411D01*
X118306525Y-90946632D01*
X118513368Y-91153475D01*
X118756589Y-91315990D01*
X119026842Y-91427932D01*
X119313740Y-91485000D01*
X119606260Y-91485000D01*
X119893158Y-91427932D01*
X120163411Y-91315990D01*
X120406632Y-91153475D01*
X120538487Y-91021620D01*
X120560498Y-91094180D01*
X120619463Y-91204494D01*
X120698815Y-91301185D01*
X120795506Y-91380537D01*
X120905820Y-91439502D01*
X121025518Y-91475812D01*
X121150000Y-91488072D01*
X122850000Y-91488072D01*
X122974482Y-91475812D01*
X123094180Y-91439502D01*
X123204494Y-91380537D01*
X123301185Y-91301185D01*
X123380537Y-91204494D01*
X123439502Y-91094180D01*
X123475812Y-90974482D01*
X123488072Y-90850000D01*
X123488072Y-89150000D01*
X123481891Y-89087239D01*
X123494454Y-89128656D01*
X123565026Y-89260686D01*
X123617214Y-89324276D01*
X123660000Y-89376411D01*
X123688998Y-89400209D01*
X125249801Y-90961013D01*
X125273599Y-90990011D01*
X125302597Y-91013809D01*
X125389323Y-91084984D01*
X125517460Y-91153475D01*
X125521353Y-91155556D01*
X125664614Y-91199013D01*
X125776267Y-91210010D01*
X125776277Y-91210010D01*
X125813599Y-91213686D01*
X125850922Y-91210010D01*
X149442668Y-91210010D01*
X149479990Y-91213686D01*
X149517312Y-91210010D01*
X149517323Y-91210010D01*
X149628976Y-91199013D01*
X149772237Y-91155556D01*
X149904266Y-91084984D01*
X150019991Y-90990011D01*
X150043794Y-90961007D01*
X154601061Y-86403740D01*
X159515000Y-86403740D01*
X159515000Y-86696260D01*
X159572068Y-86983158D01*
X159684010Y-87253411D01*
X159846525Y-87496632D01*
X160053368Y-87703475D01*
X160296589Y-87865990D01*
X160566842Y-87977932D01*
X160853740Y-88035000D01*
X161146260Y-88035000D01*
X161322215Y-88000000D01*
X161873000Y-88000000D01*
X161873000Y-94000000D01*
X161875440Y-94024776D01*
X161882667Y-94048601D01*
X161894403Y-94070557D01*
X161910197Y-94089803D01*
X161929443Y-94105597D01*
X161951399Y-94117333D01*
X161975224Y-94124560D01*
X162000000Y-94127000D01*
X168000000Y-94127000D01*
X168024776Y-94124560D01*
X168048601Y-94117333D01*
X168070557Y-94105597D01*
X168089803Y-94089803D01*
X168105597Y-94070557D01*
X168117333Y-94048601D01*
X168124560Y-94024776D01*
X168127000Y-94000000D01*
X168127000Y-88000000D01*
X168124560Y-87975224D01*
X168117333Y-87951399D01*
X168105597Y-87929443D01*
X168089803Y-87910197D01*
X168070557Y-87894403D01*
X168048601Y-87882667D01*
X168024776Y-87875440D01*
X168000000Y-87873000D01*
X162000000Y-87873000D01*
X161975224Y-87875440D01*
X161951399Y-87882667D01*
X161929443Y-87894403D01*
X161910197Y-87910197D01*
X161894403Y-87929443D01*
X161882667Y-87951399D01*
X161875440Y-87975224D01*
X161873000Y-88000000D01*
X161322215Y-88000000D01*
X161433158Y-87977932D01*
X161703411Y-87865990D01*
X161946632Y-87703475D01*
X162153475Y-87496632D01*
X162315990Y-87253411D01*
X162427932Y-86983158D01*
X162485000Y-86696260D01*
X162485000Y-86403740D01*
X162427932Y-86116842D01*
X162315990Y-85846589D01*
X162153475Y-85603368D01*
X161946632Y-85396525D01*
X161764466Y-85274805D01*
X161881355Y-85205178D01*
X162097588Y-85010269D01*
X162271641Y-84776920D01*
X162396825Y-84514099D01*
X162441476Y-84366890D01*
X162320155Y-84137000D01*
X161127000Y-84137000D01*
X161127000Y-84157000D01*
X160873000Y-84157000D01*
X160873000Y-84137000D01*
X159679845Y-84137000D01*
X159558524Y-84366890D01*
X159603175Y-84514099D01*
X159728359Y-84776920D01*
X159902412Y-85010269D01*
X160118645Y-85205178D01*
X160235534Y-85274805D01*
X160053368Y-85396525D01*
X159846525Y-85603368D01*
X159684010Y-85846589D01*
X159572068Y-86116842D01*
X159515000Y-86403740D01*
X154601061Y-86403740D01*
X159515000Y-81489802D01*
X159515000Y-81616260D01*
X159572068Y-81903158D01*
X159684010Y-82173411D01*
X159846525Y-82416632D01*
X160053368Y-82623475D01*
X160235534Y-82745195D01*
X160118645Y-82814822D01*
X159902412Y-83009731D01*
X159728359Y-83243080D01*
X159603175Y-83505901D01*
X159558524Y-83653110D01*
X159679845Y-83883000D01*
X160873000Y-83883000D01*
X160873000Y-83863000D01*
X161127000Y-83863000D01*
X161127000Y-83883000D01*
X162320155Y-83883000D01*
X162441476Y-83653110D01*
X162396825Y-83505901D01*
X162271641Y-83243080D01*
X162097588Y-83009731D01*
X161881355Y-82814822D01*
X161764466Y-82745195D01*
X161946632Y-82623475D01*
X162153475Y-82416632D01*
X162315990Y-82173411D01*
X162427932Y-81903158D01*
X162485000Y-81616260D01*
X162485000Y-81323740D01*
X162427932Y-81036842D01*
X162315990Y-80766589D01*
X162153475Y-80523368D01*
X161946632Y-80316525D01*
X161772240Y-80200000D01*
X161946632Y-80083475D01*
X162153475Y-79876632D01*
X162315990Y-79633411D01*
X162427932Y-79363158D01*
X162485000Y-79076260D01*
X162485000Y-78783740D01*
X162427932Y-78496842D01*
X162315990Y-78226589D01*
X162153475Y-77983368D01*
X161946632Y-77776525D01*
X161772240Y-77660000D01*
X161946632Y-77543475D01*
X162153475Y-77336632D01*
X162315990Y-77093411D01*
X162427932Y-76823158D01*
X162485000Y-76536260D01*
X162485000Y-76243740D01*
X162427932Y-75956842D01*
X162315990Y-75686589D01*
X162153475Y-75443368D01*
X162021620Y-75311513D01*
X162094180Y-75289502D01*
X162204494Y-75230537D01*
X162301185Y-75151185D01*
X162380537Y-75054494D01*
X162439502Y-74944180D01*
X162475812Y-74824482D01*
X162488072Y-74700000D01*
X162488072Y-73000000D01*
X162475812Y-72875518D01*
X162439502Y-72755820D01*
X162380537Y-72645506D01*
X162301185Y-72548815D01*
X162204494Y-72469463D01*
X162094180Y-72410498D01*
X161974482Y-72374188D01*
X161850000Y-72361928D01*
X160150000Y-72361928D01*
X160025518Y-72374188D01*
X159905820Y-72410498D01*
X159795506Y-72469463D01*
X159698815Y-72548815D01*
X159619463Y-72645506D01*
X159560498Y-72755820D01*
X159524188Y-72875518D01*
X159511928Y-73000000D01*
X159511928Y-74700000D01*
X159524188Y-74824482D01*
X159560498Y-74944180D01*
X159619463Y-75054494D01*
X159698815Y-75151185D01*
X159795506Y-75230537D01*
X159905820Y-75289502D01*
X159978380Y-75311513D01*
X159846525Y-75443368D01*
X159684010Y-75686589D01*
X159572068Y-75956842D01*
X159515000Y-76243740D01*
X159515000Y-76536260D01*
X159558790Y-76756408D01*
X147075199Y-89240000D01*
X128007538Y-89240000D01*
X128035000Y-89101939D01*
X128035000Y-88898061D01*
X127995226Y-88698102D01*
X127917205Y-88509744D01*
X127803937Y-88340226D01*
X127760000Y-88296289D01*
X127760000Y-85537322D01*
X127763676Y-85499999D01*
X127760000Y-85462676D01*
X127760000Y-85462667D01*
X127749003Y-85351014D01*
X127705546Y-85207753D01*
X127634974Y-85075724D01*
X127540001Y-84959999D01*
X127511004Y-84936202D01*
X126705158Y-84130357D01*
X126713072Y-84050000D01*
X126713072Y-82713072D01*
X128050000Y-82713072D01*
X128174482Y-82700812D01*
X128240000Y-82680937D01*
X128240001Y-83962668D01*
X128236324Y-84000000D01*
X128240001Y-84037333D01*
X128250998Y-84148986D01*
X128259109Y-84175724D01*
X128294454Y-84292246D01*
X128365026Y-84424276D01*
X128436201Y-84511002D01*
X128460000Y-84540001D01*
X128488998Y-84563799D01*
X129436201Y-85511003D01*
X129459999Y-85540001D01*
X129488997Y-85563799D01*
X129575724Y-85634974D01*
X129707753Y-85705546D01*
X129851014Y-85749003D01*
X130000000Y-85763677D01*
X130037333Y-85760000D01*
X136962678Y-85760000D01*
X137000000Y-85763676D01*
X137037322Y-85760000D01*
X137037333Y-85760000D01*
X137148986Y-85749003D01*
X137292247Y-85705546D01*
X137424276Y-85634974D01*
X137540001Y-85540001D01*
X137563804Y-85510997D01*
X141236005Y-81838797D01*
X141265002Y-81815000D01*
X141291333Y-81782916D01*
X141359975Y-81699276D01*
X141430547Y-81567246D01*
X141430547Y-81567245D01*
X141474004Y-81423985D01*
X141485001Y-81312332D01*
X141485001Y-81312322D01*
X141488677Y-81274999D01*
X141485001Y-81237676D01*
X141485001Y-76850000D01*
X143311928Y-76850000D01*
X143324188Y-76974482D01*
X143360498Y-77094180D01*
X143419463Y-77204494D01*
X143498815Y-77301185D01*
X143595506Y-77380537D01*
X143705820Y-77439502D01*
X143825518Y-77475812D01*
X143950000Y-77488072D01*
X144414250Y-77485000D01*
X144573000Y-77326250D01*
X144573000Y-75977000D01*
X143473750Y-75977000D01*
X143315000Y-76135750D01*
X143311928Y-76850000D01*
X141485001Y-76850000D01*
X141485001Y-74850000D01*
X143311928Y-74850000D01*
X143315000Y-75564250D01*
X143473750Y-75723000D01*
X144573000Y-75723000D01*
X144573000Y-74373750D01*
X144414250Y-74215000D01*
X143950000Y-74211928D01*
X143825518Y-74224188D01*
X143705820Y-74260498D01*
X143595506Y-74319463D01*
X143498815Y-74398815D01*
X143419463Y-74495506D01*
X143360498Y-74605820D01*
X143324188Y-74725518D01*
X143311928Y-74850000D01*
X141485001Y-74850000D01*
X141485001Y-72700000D01*
X142936928Y-72700000D01*
X142949188Y-72824482D01*
X142985498Y-72944180D01*
X143044463Y-73054494D01*
X143123815Y-73151185D01*
X143220506Y-73230537D01*
X143330820Y-73289502D01*
X143450518Y-73325812D01*
X143575000Y-73338072D01*
X143776750Y-73335000D01*
X143935500Y-73176250D01*
X143935500Y-72127000D01*
X143098750Y-72127000D01*
X142940000Y-72285750D01*
X142936928Y-72700000D01*
X141485001Y-72700000D01*
X141485001Y-70762323D01*
X141485230Y-70760000D01*
X143238210Y-70760000D01*
X143220506Y-70769463D01*
X143123815Y-70848815D01*
X143044463Y-70945506D01*
X142985498Y-71055820D01*
X142949188Y-71175518D01*
X142936928Y-71300000D01*
X142940000Y-71714250D01*
X143098750Y-71873000D01*
X143935500Y-71873000D01*
X143935500Y-71853000D01*
X144189500Y-71853000D01*
X144189500Y-71873000D01*
X144209500Y-71873000D01*
X144209500Y-72127000D01*
X144189500Y-72127000D01*
X144189500Y-73176250D01*
X144348250Y-73335000D01*
X144550000Y-73338072D01*
X144674482Y-73325812D01*
X144794180Y-73289502D01*
X144904494Y-73230537D01*
X145001185Y-73151185D01*
X145064992Y-73073436D01*
X145070208Y-73079792D01*
X145203836Y-73189458D01*
X145356291Y-73270947D01*
X145521715Y-73321128D01*
X145693750Y-73338072D01*
X146181250Y-73338072D01*
X146353285Y-73321128D01*
X146518709Y-73270947D01*
X146671164Y-73189458D01*
X146804792Y-73079792D01*
X146914458Y-72946164D01*
X146979717Y-72824073D01*
X146965000Y-72898061D01*
X146965000Y-72960198D01*
X146489002Y-73436196D01*
X146459999Y-73459999D01*
X146416851Y-73512576D01*
X146365026Y-73575724D01*
X146322205Y-73655836D01*
X146294454Y-73707754D01*
X146250997Y-73851015D01*
X146240000Y-73962668D01*
X146240000Y-73962678D01*
X146236324Y-74000000D01*
X146240000Y-74037323D01*
X146240000Y-74212913D01*
X146125518Y-74224188D01*
X146005820Y-74260498D01*
X145895506Y-74319463D01*
X145850000Y-74356809D01*
X145804494Y-74319463D01*
X145694180Y-74260498D01*
X145574482Y-74224188D01*
X145450000Y-74211928D01*
X144985750Y-74215000D01*
X144827000Y-74373750D01*
X144827000Y-75723000D01*
X144847000Y-75723000D01*
X144847000Y-75977000D01*
X144827000Y-75977000D01*
X144827000Y-77326250D01*
X144985750Y-77485000D01*
X145450000Y-77488072D01*
X145574482Y-77475812D01*
X145694180Y-77439502D01*
X145804494Y-77380537D01*
X145850000Y-77343191D01*
X145895506Y-77380537D01*
X146005820Y-77439502D01*
X146125518Y-77475812D01*
X146240001Y-77487087D01*
X146240000Y-80511928D01*
X145100000Y-80511928D01*
X144975518Y-80524188D01*
X144855820Y-80560498D01*
X144745506Y-80619463D01*
X144648815Y-80698815D01*
X144569463Y-80795506D01*
X144510498Y-80905820D01*
X144474188Y-81025518D01*
X144461928Y-81150000D01*
X144461928Y-83150000D01*
X144474188Y-83274482D01*
X144510498Y-83394180D01*
X144569463Y-83504494D01*
X144648815Y-83601185D01*
X144745506Y-83680537D01*
X144855820Y-83739502D01*
X144975518Y-83775812D01*
X145100000Y-83788072D01*
X148900000Y-83788072D01*
X149024482Y-83775812D01*
X149144180Y-83739502D01*
X149254494Y-83680537D01*
X149351185Y-83601185D01*
X149430537Y-83504494D01*
X149489502Y-83394180D01*
X149525812Y-83274482D01*
X149538072Y-83150000D01*
X149538072Y-81150000D01*
X149525812Y-81025518D01*
X149489502Y-80905820D01*
X149430537Y-80795506D01*
X149351185Y-80698815D01*
X149254494Y-80619463D01*
X149144180Y-80560498D01*
X149024482Y-80524188D01*
X148900000Y-80511928D01*
X147760000Y-80511928D01*
X147760000Y-77487087D01*
X147874482Y-77475812D01*
X147994180Y-77439502D01*
X148104494Y-77380537D01*
X148150000Y-77343191D01*
X148195506Y-77380537D01*
X148305820Y-77439502D01*
X148425518Y-77475812D01*
X148550000Y-77488072D01*
X150050000Y-77488072D01*
X150174482Y-77475812D01*
X150294180Y-77439502D01*
X150404494Y-77380537D01*
X150501185Y-77301185D01*
X150555501Y-77235000D01*
X151431762Y-77235000D01*
X151449657Y-77238078D01*
X151567974Y-77235000D01*
X151618037Y-77235000D01*
X151636007Y-77233230D01*
X151722385Y-77230983D01*
X151771444Y-77219891D01*
X151821507Y-77214960D01*
X151904208Y-77189873D01*
X151988489Y-77170817D01*
X152034441Y-77150367D01*
X152082581Y-77135764D01*
X152158803Y-77095022D01*
X152237743Y-77059892D01*
X152278820Y-77030872D01*
X152323188Y-77007157D01*
X152389991Y-76952333D01*
X152404729Y-76941921D01*
X152442565Y-76909187D01*
X152534081Y-76834081D01*
X152545603Y-76820041D01*
X156847631Y-73098063D01*
X156896245Y-73064695D01*
X156937928Y-73021958D01*
X156984081Y-72984081D01*
X157032956Y-72924527D01*
X157039000Y-72918330D01*
X157044857Y-72911008D01*
X157098397Y-72854608D01*
X157125244Y-72812074D01*
X157157157Y-72773188D01*
X157161271Y-72765491D01*
X159065665Y-70385000D01*
X163931971Y-70385000D01*
X164000000Y-70391700D01*
X164068029Y-70385000D01*
X164068037Y-70385000D01*
X164271507Y-70364960D01*
X164532581Y-70285764D01*
X164773188Y-70157157D01*
X164984081Y-69984081D01*
X165027454Y-69931231D01*
X165831686Y-69127000D01*
X169340000Y-69127000D01*
X169340001Y-99340000D01*
X123734801Y-99340000D01*
X125314802Y-97760000D01*
X126121687Y-97760000D01*
X126267688Y-97978505D01*
X126481495Y-98192312D01*
X126732905Y-98360299D01*
X127012257Y-98476011D01*
X127308816Y-98535000D01*
X127611184Y-98535000D01*
X127907743Y-98476011D01*
X128187095Y-98360299D01*
X128438505Y-98192312D01*
X128504944Y-98125873D01*
X128510498Y-98144180D01*
X128569463Y-98254494D01*
X128648815Y-98351185D01*
X128745506Y-98430537D01*
X128855820Y-98489502D01*
X128975518Y-98525812D01*
X129100000Y-98538072D01*
X130900000Y-98538072D01*
X131024482Y-98525812D01*
X131144180Y-98489502D01*
X131254494Y-98430537D01*
X131351185Y-98351185D01*
X131430537Y-98254494D01*
X131489502Y-98144180D01*
X131525812Y-98024482D01*
X131538072Y-97900000D01*
X131538072Y-97760000D01*
X137882678Y-97760000D01*
X137920000Y-97763676D01*
X137957322Y-97760000D01*
X137957333Y-97760000D01*
X138068986Y-97749003D01*
X138212247Y-97705546D01*
X138344276Y-97634974D01*
X138460001Y-97540001D01*
X138483804Y-97510998D01*
X138506729Y-97488072D01*
X139770000Y-97488072D01*
X139894482Y-97475812D01*
X140014180Y-97439502D01*
X140124494Y-97380537D01*
X140221185Y-97301185D01*
X140300537Y-97204494D01*
X140359502Y-97094180D01*
X140383966Y-97013534D01*
X140459731Y-97097588D01*
X140693080Y-97271641D01*
X140955901Y-97396825D01*
X141103110Y-97441476D01*
X141333000Y-97320155D01*
X141333000Y-96127000D01*
X141313000Y-96127000D01*
X141313000Y-95873000D01*
X141333000Y-95873000D01*
X141333000Y-94679845D01*
X141587000Y-94679845D01*
X141587000Y-95873000D01*
X141607000Y-95873000D01*
X141607000Y-96127000D01*
X141587000Y-96127000D01*
X141587000Y-97320155D01*
X141816890Y-97441476D01*
X141964099Y-97396825D01*
X142226920Y-97271641D01*
X142460269Y-97097588D01*
X142655178Y-96881355D01*
X142724805Y-96764466D01*
X142846525Y-96946632D01*
X143053368Y-97153475D01*
X143296589Y-97315990D01*
X143566842Y-97427932D01*
X143853740Y-97485000D01*
X144146260Y-97485000D01*
X144433158Y-97427932D01*
X144703411Y-97315990D01*
X144946632Y-97153475D01*
X145153475Y-96946632D01*
X145270000Y-96772240D01*
X145386525Y-96946632D01*
X145593368Y-97153475D01*
X145836589Y-97315990D01*
X146106842Y-97427932D01*
X146393740Y-97485000D01*
X146686260Y-97485000D01*
X146973158Y-97427932D01*
X147243411Y-97315990D01*
X147486632Y-97153475D01*
X147693475Y-96946632D01*
X147810000Y-96772240D01*
X147926525Y-96946632D01*
X148133368Y-97153475D01*
X148376589Y-97315990D01*
X148646842Y-97427932D01*
X148933740Y-97485000D01*
X149226260Y-97485000D01*
X149276533Y-97475000D01*
X153961928Y-97475000D01*
X153974188Y-97599482D01*
X154010498Y-97719180D01*
X154069463Y-97829494D01*
X154148815Y-97926185D01*
X154245506Y-98005537D01*
X154355820Y-98064502D01*
X154475518Y-98100812D01*
X154600000Y-98113072D01*
X154839250Y-98110000D01*
X154998000Y-97951250D01*
X154998000Y-97127000D01*
X154123750Y-97127000D01*
X153965000Y-97285750D01*
X153961928Y-97475000D01*
X149276533Y-97475000D01*
X149513158Y-97427932D01*
X149783411Y-97315990D01*
X150026632Y-97153475D01*
X150233475Y-96946632D01*
X150395990Y-96703411D01*
X150469889Y-96525000D01*
X153961928Y-96525000D01*
X153965000Y-96714250D01*
X154123750Y-96873000D01*
X154998000Y-96873000D01*
X154998000Y-96048750D01*
X155252000Y-96048750D01*
X155252000Y-96873000D01*
X155272000Y-96873000D01*
X155272000Y-97127000D01*
X155252000Y-97127000D01*
X155252000Y-97951250D01*
X155410750Y-98110000D01*
X155650000Y-98113072D01*
X155774482Y-98100812D01*
X155894180Y-98064502D01*
X156004494Y-98005537D01*
X156077161Y-97945901D01*
X156101058Y-97965512D01*
X156252433Y-98046423D01*
X156416684Y-98096248D01*
X156587500Y-98113072D01*
X157162500Y-98113072D01*
X157333316Y-98096248D01*
X157497567Y-98046423D01*
X157648942Y-97965512D01*
X157781623Y-97856623D01*
X157860920Y-97760000D01*
X158264080Y-97760000D01*
X158343377Y-97856623D01*
X158476058Y-97965512D01*
X158627433Y-98046423D01*
X158791684Y-98096248D01*
X158962500Y-98113072D01*
X159537500Y-98113072D01*
X159708316Y-98096248D01*
X159872567Y-98046423D01*
X160023942Y-97965512D01*
X160125000Y-97882575D01*
X160226058Y-97965512D01*
X160377433Y-98046423D01*
X160541684Y-98096248D01*
X160712500Y-98113072D01*
X161287500Y-98113072D01*
X161458316Y-98096248D01*
X161622567Y-98046423D01*
X161773942Y-97965512D01*
X161906623Y-97856623D01*
X161985920Y-97760000D01*
X164296289Y-97760000D01*
X164340226Y-97803937D01*
X164509744Y-97917205D01*
X164698102Y-97995226D01*
X164898061Y-98035000D01*
X165101939Y-98035000D01*
X165301898Y-97995226D01*
X165490256Y-97917205D01*
X165659774Y-97803937D01*
X165803937Y-97659774D01*
X165917205Y-97490256D01*
X165995226Y-97301898D01*
X166035000Y-97101939D01*
X166035000Y-96898061D01*
X165995226Y-96698102D01*
X165917205Y-96509744D01*
X165803937Y-96340226D01*
X165659774Y-96196063D01*
X165490256Y-96082795D01*
X165301898Y-96004774D01*
X165101939Y-95965000D01*
X164898061Y-95965000D01*
X164698102Y-96004774D01*
X164509744Y-96082795D01*
X164340226Y-96196063D01*
X164296289Y-96240000D01*
X161985920Y-96240000D01*
X161906623Y-96143377D01*
X161773942Y-96034488D01*
X161622567Y-95953577D01*
X161458316Y-95903752D01*
X161287500Y-95886928D01*
X160712500Y-95886928D01*
X160541684Y-95903752D01*
X160377433Y-95953577D01*
X160226058Y-96034488D01*
X160125000Y-96117425D01*
X160023942Y-96034488D01*
X159872567Y-95953577D01*
X159708316Y-95903752D01*
X159537500Y-95886928D01*
X158962500Y-95886928D01*
X158791684Y-95903752D01*
X158627433Y-95953577D01*
X158476058Y-96034488D01*
X158343377Y-96143377D01*
X158264080Y-96240000D01*
X157860920Y-96240000D01*
X157781623Y-96143377D01*
X157648942Y-96034488D01*
X157497567Y-95953577D01*
X157333316Y-95903752D01*
X157162500Y-95886928D01*
X156587500Y-95886928D01*
X156416684Y-95903752D01*
X156252433Y-95953577D01*
X156101058Y-96034488D01*
X156077161Y-96054099D01*
X156004494Y-95994463D01*
X155894180Y-95935498D01*
X155774482Y-95899188D01*
X155650000Y-95886928D01*
X155410750Y-95890000D01*
X155252000Y-96048750D01*
X154998000Y-96048750D01*
X154839250Y-95890000D01*
X154600000Y-95886928D01*
X154475518Y-95899188D01*
X154355820Y-95935498D01*
X154245506Y-95994463D01*
X154148815Y-96073815D01*
X154069463Y-96170506D01*
X154010498Y-96280820D01*
X153974188Y-96400518D01*
X153961928Y-96525000D01*
X150469889Y-96525000D01*
X150507932Y-96433158D01*
X150565000Y-96146260D01*
X150565000Y-95853740D01*
X150507932Y-95566842D01*
X150395990Y-95296589D01*
X150233475Y-95053368D01*
X150026632Y-94846525D01*
X149783411Y-94684010D01*
X149513158Y-94572068D01*
X149226260Y-94515000D01*
X148933740Y-94515000D01*
X148646842Y-94572068D01*
X148376589Y-94684010D01*
X148133368Y-94846525D01*
X147926525Y-95053368D01*
X147810000Y-95227760D01*
X147693475Y-95053368D01*
X147486632Y-94846525D01*
X147243411Y-94684010D01*
X146973158Y-94572068D01*
X146686260Y-94515000D01*
X146393740Y-94515000D01*
X146106842Y-94572068D01*
X145836589Y-94684010D01*
X145593368Y-94846525D01*
X145386525Y-95053368D01*
X145270000Y-95227760D01*
X145153475Y-95053368D01*
X144946632Y-94846525D01*
X144703411Y-94684010D01*
X144433158Y-94572068D01*
X144146260Y-94515000D01*
X143853740Y-94515000D01*
X143566842Y-94572068D01*
X143296589Y-94684010D01*
X143053368Y-94846525D01*
X142846525Y-95053368D01*
X142724805Y-95235534D01*
X142655178Y-95118645D01*
X142460269Y-94902412D01*
X142226920Y-94728359D01*
X141964099Y-94603175D01*
X141816890Y-94558524D01*
X141587000Y-94679845D01*
X141333000Y-94679845D01*
X141103110Y-94558524D01*
X140955901Y-94603175D01*
X140693080Y-94728359D01*
X140459731Y-94902412D01*
X140383966Y-94986466D01*
X140359502Y-94905820D01*
X140300537Y-94795506D01*
X140221185Y-94698815D01*
X140124494Y-94619463D01*
X140014180Y-94560498D01*
X139894482Y-94524188D01*
X139770000Y-94511928D01*
X138070000Y-94511928D01*
X137945518Y-94524188D01*
X137825820Y-94560498D01*
X137715506Y-94619463D01*
X137618815Y-94698815D01*
X137539463Y-94795506D01*
X137480498Y-94905820D01*
X137444188Y-95025518D01*
X137431928Y-95150000D01*
X137431928Y-96240000D01*
X131538072Y-96240000D01*
X131538072Y-96100000D01*
X131525812Y-95975518D01*
X131489502Y-95855820D01*
X131430537Y-95745506D01*
X131351185Y-95648815D01*
X131254494Y-95569463D01*
X131144180Y-95510498D01*
X131024482Y-95474188D01*
X130900000Y-95461928D01*
X129100000Y-95461928D01*
X128975518Y-95474188D01*
X128855820Y-95510498D01*
X128745506Y-95569463D01*
X128648815Y-95648815D01*
X128569463Y-95745506D01*
X128510498Y-95855820D01*
X128504944Y-95874127D01*
X128438505Y-95807688D01*
X128187095Y-95639701D01*
X127907743Y-95523989D01*
X127611184Y-95465000D01*
X127308816Y-95465000D01*
X127012257Y-95523989D01*
X126732905Y-95639701D01*
X126481495Y-95807688D01*
X126267688Y-96021495D01*
X126121687Y-96240000D01*
X125037322Y-96240000D01*
X124999999Y-96236324D01*
X124962676Y-96240000D01*
X124962667Y-96240000D01*
X124851014Y-96250997D01*
X124715029Y-96292247D01*
X124707753Y-96294454D01*
X124575723Y-96365026D01*
X124499681Y-96427433D01*
X124459999Y-96459999D01*
X124436201Y-96488997D01*
X124113072Y-96812126D01*
X124113072Y-96712500D01*
X124096248Y-96541684D01*
X124046423Y-96377433D01*
X123965512Y-96226058D01*
X123882575Y-96125000D01*
X123965512Y-96023942D01*
X124046423Y-95872567D01*
X124096248Y-95708316D01*
X124113072Y-95537500D01*
X124113072Y-95032786D01*
X124301898Y-94995226D01*
X124490256Y-94917205D01*
X124659774Y-94803937D01*
X124803937Y-94659774D01*
X124917205Y-94490256D01*
X124995226Y-94301898D01*
X125035000Y-94101939D01*
X125035000Y-93898061D01*
X124995226Y-93698102D01*
X124917205Y-93509744D01*
X124803937Y-93340226D01*
X124659774Y-93196063D01*
X124490256Y-93082795D01*
X124301898Y-93004774D01*
X124101939Y-92965000D01*
X123898061Y-92965000D01*
X123698102Y-93004774D01*
X123509744Y-93082795D01*
X123340226Y-93196063D01*
X123296289Y-93240000D01*
X123037333Y-93240000D01*
X123000000Y-93236323D01*
X122962667Y-93240000D01*
X122851014Y-93250997D01*
X122707753Y-93294454D01*
X122575724Y-93365026D01*
X122459999Y-93459999D01*
X122365026Y-93575724D01*
X122294454Y-93707753D01*
X122250997Y-93851014D01*
X122236323Y-94000000D01*
X122240000Y-94037333D01*
X122240000Y-94264080D01*
X122143377Y-94343377D01*
X122034488Y-94476058D01*
X121953577Y-94627433D01*
X121903752Y-94791684D01*
X121886928Y-94962500D01*
X121886928Y-95537500D01*
X121903752Y-95708316D01*
X121953577Y-95872567D01*
X122034488Y-96023942D01*
X122117425Y-96125000D01*
X122034488Y-96226058D01*
X121953577Y-96377433D01*
X121903752Y-96541684D01*
X121886928Y-96712500D01*
X121886928Y-97287500D01*
X121903752Y-97458316D01*
X121953577Y-97622567D01*
X122034488Y-97773942D01*
X122143377Y-97906623D01*
X122240001Y-97985920D01*
X122240000Y-98962677D01*
X122236324Y-99000000D01*
X122240000Y-99037322D01*
X122240000Y-99037332D01*
X122250997Y-99148985D01*
X122294454Y-99292246D01*
X122319979Y-99340000D01*
X100660000Y-99340000D01*
X100660000Y-96853740D01*
X108435000Y-96853740D01*
X108435000Y-97146260D01*
X108492068Y-97433158D01*
X108604010Y-97703411D01*
X108766525Y-97946632D01*
X108973368Y-98153475D01*
X109216589Y-98315990D01*
X109486842Y-98427932D01*
X109773740Y-98485000D01*
X110066260Y-98485000D01*
X110353158Y-98427932D01*
X110623411Y-98315990D01*
X110866632Y-98153475D01*
X111073475Y-97946632D01*
X111190000Y-97772240D01*
X111306525Y-97946632D01*
X111513368Y-98153475D01*
X111756589Y-98315990D01*
X112026842Y-98427932D01*
X112313740Y-98485000D01*
X112606260Y-98485000D01*
X112893158Y-98427932D01*
X113163411Y-98315990D01*
X113406632Y-98153475D01*
X113538487Y-98021620D01*
X113560498Y-98094180D01*
X113619463Y-98204494D01*
X113698815Y-98301185D01*
X113795506Y-98380537D01*
X113905820Y-98439502D01*
X114025518Y-98475812D01*
X114150000Y-98488072D01*
X114714250Y-98485000D01*
X114873000Y-98326250D01*
X114873000Y-97127000D01*
X115127000Y-97127000D01*
X115127000Y-98326250D01*
X115285750Y-98485000D01*
X115850000Y-98488072D01*
X115974482Y-98475812D01*
X116094180Y-98439502D01*
X116204494Y-98380537D01*
X116301185Y-98301185D01*
X116380537Y-98204494D01*
X116439502Y-98094180D01*
X116475812Y-97974482D01*
X116488072Y-97850000D01*
X116485000Y-97285750D01*
X116326250Y-97127000D01*
X115127000Y-97127000D01*
X114873000Y-97127000D01*
X114853000Y-97127000D01*
X114853000Y-96873000D01*
X114873000Y-96873000D01*
X114873000Y-95673750D01*
X115127000Y-95673750D01*
X115127000Y-96873000D01*
X116326250Y-96873000D01*
X116485000Y-96714250D01*
X116488072Y-96150000D01*
X116475812Y-96025518D01*
X116439502Y-95905820D01*
X116380537Y-95795506D01*
X116301185Y-95698815D01*
X116204494Y-95619463D01*
X116094180Y-95560498D01*
X115974482Y-95524188D01*
X115850000Y-95511928D01*
X115285750Y-95515000D01*
X115127000Y-95673750D01*
X114873000Y-95673750D01*
X114714250Y-95515000D01*
X114150000Y-95511928D01*
X114025518Y-95524188D01*
X113905820Y-95560498D01*
X113795506Y-95619463D01*
X113698815Y-95698815D01*
X113619463Y-95795506D01*
X113560498Y-95905820D01*
X113538487Y-95978380D01*
X113406632Y-95846525D01*
X113163411Y-95684010D01*
X112893158Y-95572068D01*
X112606260Y-95515000D01*
X112313740Y-95515000D01*
X112026842Y-95572068D01*
X111756589Y-95684010D01*
X111513368Y-95846525D01*
X111306525Y-96053368D01*
X111190000Y-96227760D01*
X111073475Y-96053368D01*
X110866632Y-95846525D01*
X110623411Y-95684010D01*
X110353158Y-95572068D01*
X110066260Y-95515000D01*
X109773740Y-95515000D01*
X109486842Y-95572068D01*
X109216589Y-95684010D01*
X108973368Y-95846525D01*
X108766525Y-96053368D01*
X108604010Y-96296589D01*
X108492068Y-96566842D01*
X108435000Y-96853740D01*
X100660000Y-96853740D01*
X100660000Y-88000000D01*
X103873000Y-88000000D01*
X103873000Y-94000000D01*
X103875440Y-94024776D01*
X103882667Y-94048601D01*
X103894403Y-94070557D01*
X103910197Y-94089803D01*
X103929443Y-94105597D01*
X103951399Y-94117333D01*
X103975224Y-94124560D01*
X104000000Y-94127000D01*
X111000000Y-94127000D01*
X111024776Y-94124560D01*
X111048601Y-94117333D01*
X111070557Y-94105597D01*
X111089803Y-94089803D01*
X111105597Y-94070557D01*
X111117333Y-94048601D01*
X111124560Y-94024776D01*
X111127000Y-94000000D01*
X111127000Y-93556414D01*
X111196063Y-93659774D01*
X111340226Y-93803937D01*
X111509744Y-93917205D01*
X111698102Y-93995226D01*
X111898061Y-94035000D01*
X112101939Y-94035000D01*
X112301898Y-93995226D01*
X112490256Y-93917205D01*
X112659774Y-93803937D01*
X112703711Y-93760000D01*
X117296289Y-93760000D01*
X117340226Y-93803937D01*
X117509744Y-93917205D01*
X117698102Y-93995226D01*
X117898061Y-94035000D01*
X118101939Y-94035000D01*
X118301898Y-93995226D01*
X118490256Y-93917205D01*
X118659774Y-93803937D01*
X118803937Y-93659774D01*
X118917205Y-93490256D01*
X118995226Y-93301898D01*
X119035000Y-93101939D01*
X119035000Y-92898061D01*
X118995226Y-92698102D01*
X118917205Y-92509744D01*
X118803937Y-92340226D01*
X118659774Y-92196063D01*
X118490256Y-92082795D01*
X118301898Y-92004774D01*
X118101939Y-91965000D01*
X117898061Y-91965000D01*
X117698102Y-92004774D01*
X117509744Y-92082795D01*
X117340226Y-92196063D01*
X117296289Y-92240000D01*
X112703711Y-92240000D01*
X112659774Y-92196063D01*
X112490256Y-92082795D01*
X112301898Y-92004774D01*
X112101939Y-91965000D01*
X111898061Y-91965000D01*
X111698102Y-92004774D01*
X111509744Y-92082795D01*
X111340226Y-92196063D01*
X111196063Y-92340226D01*
X111127000Y-92443586D01*
X111127000Y-88000000D01*
X111124560Y-87975224D01*
X111117333Y-87951399D01*
X111105597Y-87929443D01*
X111089803Y-87910197D01*
X111070557Y-87894403D01*
X111048601Y-87882667D01*
X111024776Y-87875440D01*
X111000000Y-87873000D01*
X104000000Y-87873000D01*
X103975224Y-87875440D01*
X103951399Y-87882667D01*
X103929443Y-87894403D01*
X103910197Y-87910197D01*
X103894403Y-87929443D01*
X103882667Y-87951399D01*
X103875440Y-87975224D01*
X103873000Y-88000000D01*
X100660000Y-88000000D01*
X100660000Y-69127000D01*
X111059196Y-69127000D01*
X105366492Y-74819705D01*
G36*
X136965000Y-76039802D02*
G01*
X136965000Y-76101939D01*
X137004774Y-76301898D01*
X137082795Y-76490256D01*
X137196063Y-76659774D01*
X137340226Y-76803937D01*
X137509744Y-76917205D01*
X137698102Y-76995226D01*
X137898061Y-77035000D01*
X138101939Y-77035000D01*
X138301898Y-76995226D01*
X138490256Y-76917205D01*
X138659774Y-76803937D01*
X138803937Y-76659774D01*
X138917205Y-76490256D01*
X138995226Y-76301898D01*
X139035000Y-76101939D01*
X139035000Y-76035000D01*
X139101939Y-76035000D01*
X139301898Y-75995226D01*
X139490256Y-75917205D01*
X139659774Y-75803937D01*
X139803937Y-75659774D01*
X139917205Y-75490256D01*
X139965002Y-75374866D01*
X139965001Y-80960197D01*
X136685199Y-84240000D01*
X130314802Y-84240000D01*
X129760000Y-83685199D01*
X129760000Y-82037325D01*
X129763676Y-82000000D01*
X129760000Y-81962675D01*
X129760000Y-81962667D01*
X129749003Y-81851014D01*
X129717279Y-81746432D01*
X129803937Y-81659774D01*
X129917205Y-81490256D01*
X129995226Y-81301898D01*
X130035000Y-81101939D01*
X130035000Y-80898061D01*
X129995226Y-80698102D01*
X129917205Y-80509744D01*
X129803937Y-80340226D01*
X129659774Y-80196063D01*
X129490256Y-80082795D01*
X129301898Y-80004774D01*
X129101939Y-79965000D01*
X128898061Y-79965000D01*
X128698102Y-80004774D01*
X128688072Y-80008929D01*
X128688072Y-79925000D01*
X128675812Y-79800518D01*
X128675467Y-79799380D01*
X128685000Y-79685750D01*
X128592917Y-79593667D01*
X128580537Y-79570506D01*
X128501185Y-79473815D01*
X128411241Y-79400000D01*
X128501185Y-79326185D01*
X128580537Y-79229494D01*
X128592917Y-79206333D01*
X128685000Y-79114250D01*
X128675467Y-79000620D01*
X128675812Y-78999482D01*
X128688072Y-78875000D01*
X128688072Y-78325000D01*
X128675812Y-78200518D01*
X128675467Y-78199380D01*
X128685000Y-78085750D01*
X128592917Y-77993667D01*
X128580537Y-77970506D01*
X128501185Y-77873815D01*
X128411241Y-77800000D01*
X128459981Y-77760000D01*
X129805199Y-77760000D01*
X133643833Y-81598635D01*
X133615000Y-81743589D01*
X133615000Y-82016411D01*
X133668225Y-82283989D01*
X133772629Y-82536043D01*
X133924201Y-82762886D01*
X134117114Y-82955799D01*
X134343957Y-83107371D01*
X134596011Y-83211775D01*
X134863589Y-83265000D01*
X135136411Y-83265000D01*
X135403989Y-83211775D01*
X135656043Y-83107371D01*
X135882886Y-82955799D01*
X136075799Y-82762886D01*
X136227371Y-82536043D01*
X136331775Y-82283989D01*
X136385000Y-82016411D01*
X136385000Y-81743589D01*
X136331775Y-81476011D01*
X136227371Y-81223957D01*
X136075799Y-80997114D01*
X135882886Y-80804201D01*
X135656043Y-80652629D01*
X135403989Y-80548225D01*
X135136411Y-80495000D01*
X134863589Y-80495000D01*
X134718635Y-80523833D01*
X131154801Y-76960000D01*
X133615000Y-76960000D01*
X133615000Y-77136411D01*
X133668225Y-77403989D01*
X133772629Y-77656043D01*
X133924201Y-77882886D01*
X134117114Y-78075799D01*
X134343957Y-78227371D01*
X134596011Y-78331775D01*
X134863589Y-78385000D01*
X135136411Y-78385000D01*
X135403989Y-78331775D01*
X135656043Y-78227371D01*
X135882886Y-78075799D01*
X136075799Y-77882886D01*
X136227371Y-77656043D01*
X136331775Y-77403989D01*
X136385000Y-77136411D01*
X136385000Y-76863589D01*
X136331775Y-76596011D01*
X136227371Y-76343957D01*
X136075799Y-76117114D01*
X135882886Y-75924201D01*
X135656043Y-75772629D01*
X135403989Y-75668225D01*
X135136411Y-75615000D01*
X134863589Y-75615000D01*
X134719978Y-75643566D01*
X134624276Y-75565026D01*
X134492247Y-75494454D01*
X134348986Y-75450997D01*
X134237333Y-75440000D01*
X134237322Y-75440000D01*
X134200000Y-75436324D01*
X134162678Y-75440000D01*
X128459981Y-75440000D01*
X128404494Y-75394463D01*
X128294180Y-75335498D01*
X128174482Y-75299188D01*
X128050000Y-75286928D01*
X126713072Y-75286928D01*
X126713072Y-73950000D01*
X126700812Y-73825518D01*
X126686238Y-73777473D01*
X126803937Y-73659774D01*
X126917205Y-73490256D01*
X126995226Y-73301898D01*
X127035000Y-73101939D01*
X127035000Y-73034999D01*
X133960198Y-73034999D01*
X136965000Y-76039802D01*
G37*
X136965000Y-76039802D02*
X136965000Y-76101939D01*
X137004774Y-76301898D01*
X137082795Y-76490256D01*
X137196063Y-76659774D01*
X137340226Y-76803937D01*
X137509744Y-76917205D01*
X137698102Y-76995226D01*
X137898061Y-77035000D01*
X138101939Y-77035000D01*
X138301898Y-76995226D01*
X138490256Y-76917205D01*
X138659774Y-76803937D01*
X138803937Y-76659774D01*
X138917205Y-76490256D01*
X138995226Y-76301898D01*
X139035000Y-76101939D01*
X139035000Y-76035000D01*
X139101939Y-76035000D01*
X139301898Y-75995226D01*
X139490256Y-75917205D01*
X139659774Y-75803937D01*
X139803937Y-75659774D01*
X139917205Y-75490256D01*
X139965002Y-75374866D01*
X139965001Y-80960197D01*
X136685199Y-84240000D01*
X130314802Y-84240000D01*
X129760000Y-83685199D01*
X129760000Y-82037325D01*
X129763676Y-82000000D01*
X129760000Y-81962675D01*
X129760000Y-81962667D01*
X129749003Y-81851014D01*
X129717279Y-81746432D01*
X129803937Y-81659774D01*
X129917205Y-81490256D01*
X129995226Y-81301898D01*
X130035000Y-81101939D01*
X130035000Y-80898061D01*
X129995226Y-80698102D01*
X129917205Y-80509744D01*
X129803937Y-80340226D01*
X129659774Y-80196063D01*
X129490256Y-80082795D01*
X129301898Y-80004774D01*
X129101939Y-79965000D01*
X128898061Y-79965000D01*
X128698102Y-80004774D01*
X128688072Y-80008929D01*
X128688072Y-79925000D01*
X128675812Y-79800518D01*
X128675467Y-79799380D01*
X128685000Y-79685750D01*
X128592917Y-79593667D01*
X128580537Y-79570506D01*
X128501185Y-79473815D01*
X128411241Y-79400000D01*
X128501185Y-79326185D01*
X128580537Y-79229494D01*
X128592917Y-79206333D01*
X128685000Y-79114250D01*
X128675467Y-79000620D01*
X128675812Y-78999482D01*
X128688072Y-78875000D01*
X128688072Y-78325000D01*
X128675812Y-78200518D01*
X128675467Y-78199380D01*
X128685000Y-78085750D01*
X128592917Y-77993667D01*
X128580537Y-77970506D01*
X128501185Y-77873815D01*
X128411241Y-77800000D01*
X128459981Y-77760000D01*
X129805199Y-77760000D01*
X133643833Y-81598635D01*
X133615000Y-81743589D01*
X133615000Y-82016411D01*
X133668225Y-82283989D01*
X133772629Y-82536043D01*
X133924201Y-82762886D01*
X134117114Y-82955799D01*
X134343957Y-83107371D01*
X134596011Y-83211775D01*
X134863589Y-83265000D01*
X135136411Y-83265000D01*
X135403989Y-83211775D01*
X135656043Y-83107371D01*
X135882886Y-82955799D01*
X136075799Y-82762886D01*
X136227371Y-82536043D01*
X136331775Y-82283989D01*
X136385000Y-82016411D01*
X136385000Y-81743589D01*
X136331775Y-81476011D01*
X136227371Y-81223957D01*
X136075799Y-80997114D01*
X135882886Y-80804201D01*
X135656043Y-80652629D01*
X135403989Y-80548225D01*
X135136411Y-80495000D01*
X134863589Y-80495000D01*
X134718635Y-80523833D01*
X131154801Y-76960000D01*
X133615000Y-76960000D01*
X133615000Y-77136411D01*
X133668225Y-77403989D01*
X133772629Y-77656043D01*
X133924201Y-77882886D01*
X134117114Y-78075799D01*
X134343957Y-78227371D01*
X134596011Y-78331775D01*
X134863589Y-78385000D01*
X135136411Y-78385000D01*
X135403989Y-78331775D01*
X135656043Y-78227371D01*
X135882886Y-78075799D01*
X136075799Y-77882886D01*
X136227371Y-77656043D01*
X136331775Y-77403989D01*
X136385000Y-77136411D01*
X136385000Y-76863589D01*
X136331775Y-76596011D01*
X136227371Y-76343957D01*
X136075799Y-76117114D01*
X135882886Y-75924201D01*
X135656043Y-75772629D01*
X135403989Y-75668225D01*
X135136411Y-75615000D01*
X134863589Y-75615000D01*
X134719978Y-75643566D01*
X134624276Y-75565026D01*
X134492247Y-75494454D01*
X134348986Y-75450997D01*
X134237333Y-75440000D01*
X134237322Y-75440000D01*
X134200000Y-75436324D01*
X134162678Y-75440000D01*
X128459981Y-75440000D01*
X128404494Y-75394463D01*
X128294180Y-75335498D01*
X128174482Y-75299188D01*
X128050000Y-75286928D01*
X126713072Y-75286928D01*
X126713072Y-73950000D01*
X126700812Y-73825518D01*
X126686238Y-73777473D01*
X126803937Y-73659774D01*
X126917205Y-73490256D01*
X126995226Y-73301898D01*
X127035000Y-73101939D01*
X127035000Y-73034999D01*
X133960198Y-73034999D01*
X136965000Y-76039802D01*
G36*
X117588759Y-77000000D02*
G01*
X117498815Y-77073815D01*
X117419463Y-77170506D01*
X117407083Y-77193667D01*
X117315000Y-77285750D01*
X117324533Y-77399380D01*
X117324188Y-77400518D01*
X117311928Y-77525000D01*
X117311928Y-77840000D01*
X117112325Y-77840000D01*
X117075000Y-77836324D01*
X117037675Y-77840000D01*
X117037667Y-77840000D01*
X116926014Y-77850997D01*
X116782753Y-77894454D01*
X116650724Y-77965026D01*
X116534999Y-78059999D01*
X116511201Y-78088997D01*
X115775135Y-78825064D01*
X115623255Y-78778992D01*
X115450001Y-78761928D01*
X114549999Y-78761928D01*
X114376745Y-78778992D01*
X114210149Y-78829528D01*
X114056613Y-78911595D01*
X113922038Y-79022038D01*
X113811595Y-79156613D01*
X113729528Y-79310149D01*
X113678992Y-79476745D01*
X113661928Y-79649999D01*
X113661928Y-80300001D01*
X113678992Y-80473255D01*
X113729528Y-80639851D01*
X113811595Y-80793387D01*
X113922038Y-80927962D01*
X114009816Y-81000000D01*
X113922038Y-81072038D01*
X113811595Y-81206613D01*
X113729528Y-81360149D01*
X113678992Y-81526745D01*
X113661928Y-81699999D01*
X113661928Y-82240000D01*
X113007538Y-82240000D01*
X113035000Y-82101939D01*
X113035000Y-81898061D01*
X112995226Y-81698102D01*
X112917205Y-81509744D01*
X112803937Y-81340226D01*
X112659774Y-81196063D01*
X112490256Y-81082795D01*
X112301898Y-81004774D01*
X112101939Y-80965000D01*
X111898061Y-80965000D01*
X111698102Y-81004774D01*
X111509744Y-81082795D01*
X111340226Y-81196063D01*
X111196063Y-81340226D01*
X111082795Y-81509744D01*
X111004774Y-81698102D01*
X110965000Y-81898061D01*
X110965000Y-82101939D01*
X110992462Y-82240000D01*
X107314802Y-82240000D01*
X106069999Y-80995198D01*
X106069999Y-79704587D01*
X106296589Y-79855990D01*
X106566842Y-79967932D01*
X106853740Y-80025000D01*
X107146260Y-80025000D01*
X107433158Y-79967932D01*
X107703411Y-79855990D01*
X107946632Y-79693475D01*
X108153475Y-79486632D01*
X108275195Y-79304466D01*
X108344822Y-79421355D01*
X108539731Y-79637588D01*
X108773080Y-79811641D01*
X109035901Y-79936825D01*
X109183110Y-79981476D01*
X109413000Y-79860155D01*
X109413000Y-78667000D01*
X109667000Y-78667000D01*
X109667000Y-79860155D01*
X109896890Y-79981476D01*
X110044099Y-79936825D01*
X110306920Y-79811641D01*
X110540269Y-79637588D01*
X110735178Y-79421355D01*
X110884157Y-79171252D01*
X110981481Y-78896891D01*
X110860814Y-78667000D01*
X109667000Y-78667000D01*
X109413000Y-78667000D01*
X109393000Y-78667000D01*
X109393000Y-78413000D01*
X109413000Y-78413000D01*
X109413000Y-78393000D01*
X109667000Y-78393000D01*
X109667000Y-78413000D01*
X110860814Y-78413000D01*
X110981481Y-78183109D01*
X110893470Y-77935001D01*
X115151267Y-77935001D01*
X115188589Y-77938677D01*
X115225911Y-77935001D01*
X115225922Y-77935001D01*
X115337575Y-77924004D01*
X115480836Y-77880547D01*
X115612865Y-77809975D01*
X115728590Y-77715002D01*
X115752393Y-77685999D01*
X116478392Y-76960000D01*
X117540019Y-76960000D01*
X117588759Y-77000000D01*
G37*
X117588759Y-77000000D02*
X117498815Y-77073815D01*
X117419463Y-77170506D01*
X117407083Y-77193667D01*
X117315000Y-77285750D01*
X117324533Y-77399380D01*
X117324188Y-77400518D01*
X117311928Y-77525000D01*
X117311928Y-77840000D01*
X117112325Y-77840000D01*
X117075000Y-77836324D01*
X117037675Y-77840000D01*
X117037667Y-77840000D01*
X116926014Y-77850997D01*
X116782753Y-77894454D01*
X116650724Y-77965026D01*
X116534999Y-78059999D01*
X116511201Y-78088997D01*
X115775135Y-78825064D01*
X115623255Y-78778992D01*
X115450001Y-78761928D01*
X114549999Y-78761928D01*
X114376745Y-78778992D01*
X114210149Y-78829528D01*
X114056613Y-78911595D01*
X113922038Y-79022038D01*
X113811595Y-79156613D01*
X113729528Y-79310149D01*
X113678992Y-79476745D01*
X113661928Y-79649999D01*
X113661928Y-80300001D01*
X113678992Y-80473255D01*
X113729528Y-80639851D01*
X113811595Y-80793387D01*
X113922038Y-80927962D01*
X114009816Y-81000000D01*
X113922038Y-81072038D01*
X113811595Y-81206613D01*
X113729528Y-81360149D01*
X113678992Y-81526745D01*
X113661928Y-81699999D01*
X113661928Y-82240000D01*
X113007538Y-82240000D01*
X113035000Y-82101939D01*
X113035000Y-81898061D01*
X112995226Y-81698102D01*
X112917205Y-81509744D01*
X112803937Y-81340226D01*
X112659774Y-81196063D01*
X112490256Y-81082795D01*
X112301898Y-81004774D01*
X112101939Y-80965000D01*
X111898061Y-80965000D01*
X111698102Y-81004774D01*
X111509744Y-81082795D01*
X111340226Y-81196063D01*
X111196063Y-81340226D01*
X111082795Y-81509744D01*
X111004774Y-81698102D01*
X110965000Y-81898061D01*
X110965000Y-82101939D01*
X110992462Y-82240000D01*
X107314802Y-82240000D01*
X106069999Y-80995198D01*
X106069999Y-79704587D01*
X106296589Y-79855990D01*
X106566842Y-79967932D01*
X106853740Y-80025000D01*
X107146260Y-80025000D01*
X107433158Y-79967932D01*
X107703411Y-79855990D01*
X107946632Y-79693475D01*
X108153475Y-79486632D01*
X108275195Y-79304466D01*
X108344822Y-79421355D01*
X108539731Y-79637588D01*
X108773080Y-79811641D01*
X109035901Y-79936825D01*
X109183110Y-79981476D01*
X109413000Y-79860155D01*
X109413000Y-78667000D01*
X109667000Y-78667000D01*
X109667000Y-79860155D01*
X109896890Y-79981476D01*
X110044099Y-79936825D01*
X110306920Y-79811641D01*
X110540269Y-79637588D01*
X110735178Y-79421355D01*
X110884157Y-79171252D01*
X110981481Y-78896891D01*
X110860814Y-78667000D01*
X109667000Y-78667000D01*
X109413000Y-78667000D01*
X109393000Y-78667000D01*
X109393000Y-78413000D01*
X109413000Y-78413000D01*
X109413000Y-78393000D01*
X109667000Y-78393000D01*
X109667000Y-78413000D01*
X110860814Y-78413000D01*
X110981481Y-78183109D01*
X110893470Y-77935001D01*
X115151267Y-77935001D01*
X115188589Y-77938677D01*
X115225911Y-77935001D01*
X115225922Y-77935001D01*
X115337575Y-77924004D01*
X115480836Y-77880547D01*
X115612865Y-77809975D01*
X115728590Y-77715002D01*
X115752393Y-77685999D01*
X116478392Y-76960000D01*
X117540019Y-76960000D01*
X117588759Y-77000000D01*
G36*
X125400518Y-76175812D02*
G01*
X125525000Y-76188072D01*
X125811928Y-76188072D01*
X125811928Y-76475000D01*
X125824188Y-76599482D01*
X125824345Y-76600000D01*
X125824188Y-76600518D01*
X125811928Y-76725000D01*
X125811928Y-77275000D01*
X125824188Y-77399482D01*
X125824533Y-77400620D01*
X125815000Y-77514250D01*
X125907083Y-77606333D01*
X125919463Y-77629494D01*
X125998815Y-77726185D01*
X126088759Y-77800000D01*
X126040019Y-77840000D01*
X124437322Y-77840000D01*
X124400000Y-77836324D01*
X124362677Y-77840000D01*
X124362667Y-77840000D01*
X124251014Y-77850997D01*
X124107753Y-77894454D01*
X123975723Y-77965026D01*
X123933109Y-77999999D01*
X123859999Y-78059999D01*
X123836201Y-78088997D01*
X123000000Y-78925199D01*
X122963803Y-78889002D01*
X122940001Y-78859999D01*
X122824276Y-78765026D01*
X122692247Y-78694454D01*
X122548986Y-78650997D01*
X122437333Y-78640000D01*
X122437322Y-78640000D01*
X122400000Y-78636324D01*
X122362678Y-78640000D01*
X120188072Y-78640000D01*
X120188072Y-78325000D01*
X120175812Y-78200518D01*
X120175655Y-78200000D01*
X120175812Y-78199482D01*
X120188072Y-78075000D01*
X120188072Y-77525000D01*
X120175812Y-77400518D01*
X120175467Y-77399380D01*
X120185000Y-77285750D01*
X120092917Y-77193667D01*
X120080537Y-77170506D01*
X120001185Y-77073815D01*
X119911241Y-77000000D01*
X120001185Y-76926185D01*
X120080537Y-76829494D01*
X120092917Y-76806333D01*
X120185000Y-76714250D01*
X120175467Y-76600620D01*
X120175812Y-76599482D01*
X120188072Y-76475000D01*
X120188072Y-76188072D01*
X120475000Y-76188072D01*
X120599482Y-76175812D01*
X120600000Y-76175655D01*
X120600518Y-76175812D01*
X120725000Y-76188072D01*
X121275000Y-76188072D01*
X121399482Y-76175812D01*
X121400000Y-76175655D01*
X121400518Y-76175812D01*
X121525000Y-76188072D01*
X122075000Y-76188072D01*
X122199482Y-76175812D01*
X122200000Y-76175655D01*
X122200518Y-76175812D01*
X122325000Y-76188072D01*
X122875000Y-76188072D01*
X122999482Y-76175812D01*
X123000000Y-76175655D01*
X123000518Y-76175812D01*
X123125000Y-76188072D01*
X123675000Y-76188072D01*
X123799482Y-76175812D01*
X123800000Y-76175655D01*
X123800518Y-76175812D01*
X123925000Y-76188072D01*
X124475000Y-76188072D01*
X124599482Y-76175812D01*
X124600000Y-76175655D01*
X124600518Y-76175812D01*
X124725000Y-76188072D01*
X125275000Y-76188072D01*
X125399482Y-76175812D01*
X125400000Y-76175655D01*
X125400518Y-76175812D01*
G37*
X125400518Y-76175812D02*
X125525000Y-76188072D01*
X125811928Y-76188072D01*
X125811928Y-76475000D01*
X125824188Y-76599482D01*
X125824345Y-76600000D01*
X125824188Y-76600518D01*
X125811928Y-76725000D01*
X125811928Y-77275000D01*
X125824188Y-77399482D01*
X125824533Y-77400620D01*
X125815000Y-77514250D01*
X125907083Y-77606333D01*
X125919463Y-77629494D01*
X125998815Y-77726185D01*
X126088759Y-77800000D01*
X126040019Y-77840000D01*
X124437322Y-77840000D01*
X124400000Y-77836324D01*
X124362677Y-77840000D01*
X124362667Y-77840000D01*
X124251014Y-77850997D01*
X124107753Y-77894454D01*
X123975723Y-77965026D01*
X123933109Y-77999999D01*
X123859999Y-78059999D01*
X123836201Y-78088997D01*
X123000000Y-78925199D01*
X122963803Y-78889002D01*
X122940001Y-78859999D01*
X122824276Y-78765026D01*
X122692247Y-78694454D01*
X122548986Y-78650997D01*
X122437333Y-78640000D01*
X122437322Y-78640000D01*
X122400000Y-78636324D01*
X122362678Y-78640000D01*
X120188072Y-78640000D01*
X120188072Y-78325000D01*
X120175812Y-78200518D01*
X120175655Y-78200000D01*
X120175812Y-78199482D01*
X120188072Y-78075000D01*
X120188072Y-77525000D01*
X120175812Y-77400518D01*
X120175467Y-77399380D01*
X120185000Y-77285750D01*
X120092917Y-77193667D01*
X120080537Y-77170506D01*
X120001185Y-77073815D01*
X119911241Y-77000000D01*
X120001185Y-76926185D01*
X120080537Y-76829494D01*
X120092917Y-76806333D01*
X120185000Y-76714250D01*
X120175467Y-76600620D01*
X120175812Y-76599482D01*
X120188072Y-76475000D01*
X120188072Y-76188072D01*
X120475000Y-76188072D01*
X120599482Y-76175812D01*
X120600000Y-76175655D01*
X120600518Y-76175812D01*
X120725000Y-76188072D01*
X121275000Y-76188072D01*
X121399482Y-76175812D01*
X121400000Y-76175655D01*
X121400518Y-76175812D01*
X121525000Y-76188072D01*
X122075000Y-76188072D01*
X122199482Y-76175812D01*
X122200000Y-76175655D01*
X122200518Y-76175812D01*
X122325000Y-76188072D01*
X122875000Y-76188072D01*
X122999482Y-76175812D01*
X123000000Y-76175655D01*
X123000518Y-76175812D01*
X123125000Y-76188072D01*
X123675000Y-76188072D01*
X123799482Y-76175812D01*
X123800000Y-76175655D01*
X123800518Y-76175812D01*
X123925000Y-76188072D01*
X124475000Y-76188072D01*
X124599482Y-76175812D01*
X124600000Y-76175655D01*
X124600518Y-76175812D01*
X124725000Y-76188072D01*
X125275000Y-76188072D01*
X125399482Y-76175812D01*
X125400000Y-76175655D01*
X125400518Y-76175812D01*
G36*
X169340000Y-66873000D02*
G01*
X150760000Y-66873000D01*
X150760000Y-65703711D01*
X150803937Y-65659774D01*
X150917205Y-65490256D01*
X150995226Y-65301898D01*
X151035000Y-65101939D01*
X151035000Y-64898061D01*
X150995226Y-64698102D01*
X150917205Y-64509744D01*
X150816258Y-64358665D01*
X158565000Y-64358665D01*
X158565000Y-64641335D01*
X158620147Y-64918574D01*
X158728320Y-65179727D01*
X158885363Y-65414759D01*
X159085241Y-65614637D01*
X159320273Y-65771680D01*
X159581426Y-65879853D01*
X159858665Y-65935000D01*
X160141335Y-65935000D01*
X160418574Y-65879853D01*
X160679727Y-65771680D01*
X160914759Y-65614637D01*
X161114637Y-65414759D01*
X161271680Y-65179727D01*
X161379853Y-64918574D01*
X161435000Y-64641335D01*
X161435000Y-64358665D01*
X161379853Y-64081426D01*
X161271680Y-63820273D01*
X161114637Y-63585241D01*
X160914759Y-63385363D01*
X160679727Y-63228320D01*
X160418574Y-63120147D01*
X160141335Y-63065000D01*
X159858665Y-63065000D01*
X159581426Y-63120147D01*
X159320273Y-63228320D01*
X159085241Y-63385363D01*
X158885363Y-63585241D01*
X158728320Y-63820273D01*
X158620147Y-64081426D01*
X158565000Y-64358665D01*
X150816258Y-64358665D01*
X150803937Y-64340226D01*
X150659774Y-64196063D01*
X150490256Y-64082795D01*
X150301898Y-64004774D01*
X150101939Y-63965000D01*
X149898061Y-63965000D01*
X149698102Y-64004774D01*
X149509744Y-64082795D01*
X149340226Y-64196063D01*
X149196063Y-64340226D01*
X149082795Y-64509744D01*
X149004774Y-64698102D01*
X148965000Y-64898061D01*
X148965000Y-65101939D01*
X149004774Y-65301898D01*
X149082795Y-65490256D01*
X149196063Y-65659774D01*
X149240001Y-65703712D01*
X149240000Y-66685198D01*
X149052198Y-66873000D01*
X143823680Y-66873000D01*
X143921255Y-66690449D01*
X144012030Y-66391204D01*
X144042681Y-66080000D01*
X144012030Y-65768796D01*
X143921255Y-65469551D01*
X143773845Y-65193765D01*
X143575463Y-64952037D01*
X143402391Y-64810000D01*
X143575463Y-64667963D01*
X143773845Y-64426235D01*
X143921255Y-64150449D01*
X144012030Y-63851204D01*
X144042681Y-63540000D01*
X144012030Y-63228796D01*
X143921255Y-62929551D01*
X143773845Y-62653765D01*
X143670554Y-62527905D01*
X143754494Y-62483037D01*
X143851185Y-62403685D01*
X143930537Y-62306994D01*
X143989502Y-62196680D01*
X144025812Y-62076982D01*
X144038072Y-61952500D01*
X144038072Y-61800000D01*
X158561928Y-61800000D01*
X158574188Y-61924482D01*
X158610498Y-62044180D01*
X158669463Y-62154494D01*
X158748815Y-62251185D01*
X158845506Y-62330537D01*
X158955820Y-62389502D01*
X159075518Y-62425812D01*
X159200000Y-62438072D01*
X159714250Y-62435000D01*
X159873000Y-62276250D01*
X159873000Y-61127000D01*
X160127000Y-61127000D01*
X160127000Y-62276250D01*
X160285750Y-62435000D01*
X160800000Y-62438072D01*
X160924482Y-62425812D01*
X161044180Y-62389502D01*
X161154494Y-62330537D01*
X161251185Y-62251185D01*
X161330537Y-62154494D01*
X161389502Y-62044180D01*
X161425812Y-61924482D01*
X161438072Y-61800000D01*
X161435000Y-61285750D01*
X161276250Y-61127000D01*
X160127000Y-61127000D01*
X159873000Y-61127000D01*
X158723750Y-61127000D01*
X158565000Y-61285750D01*
X158561928Y-61800000D01*
X144038072Y-61800000D01*
X144038072Y-60200000D01*
X158561928Y-60200000D01*
X158565000Y-60714250D01*
X158723750Y-60873000D01*
X159873000Y-60873000D01*
X159873000Y-59723750D01*
X160127000Y-59723750D01*
X160127000Y-60873000D01*
X161276250Y-60873000D01*
X161435000Y-60714250D01*
X161438072Y-60200000D01*
X161425812Y-60075518D01*
X161389502Y-59955820D01*
X161330537Y-59845506D01*
X161251185Y-59748815D01*
X161154494Y-59669463D01*
X161044180Y-59610498D01*
X160924482Y-59574188D01*
X160800000Y-59561928D01*
X160285750Y-59565000D01*
X160127000Y-59723750D01*
X159873000Y-59723750D01*
X159714250Y-59565000D01*
X159200000Y-59561928D01*
X159075518Y-59574188D01*
X158955820Y-59610498D01*
X158845506Y-59669463D01*
X158748815Y-59748815D01*
X158669463Y-59845506D01*
X158610498Y-59955820D01*
X158574188Y-60075518D01*
X158561928Y-60200000D01*
X144038072Y-60200000D01*
X144038072Y-60047500D01*
X144025812Y-59923018D01*
X143989502Y-59803320D01*
X143930537Y-59693006D01*
X143851185Y-59596315D01*
X143754494Y-59516963D01*
X143644180Y-59457998D01*
X143524482Y-59421688D01*
X143400000Y-59409428D01*
X141400000Y-59409428D01*
X141275518Y-59421688D01*
X141155820Y-59457998D01*
X141045506Y-59516963D01*
X140948815Y-59596315D01*
X140869463Y-59693006D01*
X140810498Y-59803320D01*
X140774188Y-59923018D01*
X140761928Y-60047500D01*
X140761928Y-61952500D01*
X140774188Y-62076982D01*
X140797855Y-62155000D01*
X140385000Y-62155000D01*
X140385000Y-55068037D01*
X140391701Y-55000000D01*
X140364960Y-54728493D01*
X140285764Y-54467419D01*
X140157157Y-54226812D01*
X140127000Y-54190066D01*
X140127000Y-52000000D01*
X161873000Y-52000000D01*
X161873000Y-58000000D01*
X161875440Y-58024776D01*
X161882667Y-58048601D01*
X161894403Y-58070557D01*
X161910197Y-58089803D01*
X161929443Y-58105597D01*
X161951399Y-58117333D01*
X161975224Y-58124560D01*
X162000000Y-58127000D01*
X168000000Y-58127000D01*
X168024776Y-58124560D01*
X168048601Y-58117333D01*
X168070557Y-58105597D01*
X168089803Y-58089803D01*
X168105597Y-58070557D01*
X168117333Y-58048601D01*
X168124560Y-58024776D01*
X168127000Y-58000000D01*
X168127000Y-52000000D01*
X168124560Y-51975224D01*
X168117333Y-51951399D01*
X168105597Y-51929443D01*
X168089803Y-51910197D01*
X168070557Y-51894403D01*
X168048601Y-51882667D01*
X168024776Y-51875440D01*
X168000000Y-51873000D01*
X162000000Y-51873000D01*
X161975224Y-51875440D01*
X161951399Y-51882667D01*
X161929443Y-51894403D01*
X161910197Y-51910197D01*
X161894403Y-51929443D01*
X161882667Y-51951399D01*
X161875440Y-51975224D01*
X161873000Y-52000000D01*
X140127000Y-52000000D01*
X140127000Y-50726887D01*
X140303045Y-50815159D01*
X140670557Y-50916250D01*
X141050729Y-50943701D01*
X141428951Y-50896457D01*
X141790690Y-50776333D01*
X142037683Y-50644312D01*
X142169619Y-50349224D01*
X141000000Y-49179605D01*
X140985858Y-49193748D01*
X140806253Y-49014143D01*
X140820395Y-49000000D01*
X141179605Y-49000000D01*
X142349224Y-50169619D01*
X142644312Y-50037683D01*
X142815159Y-49696955D01*
X142916250Y-49329443D01*
X142943701Y-48949271D01*
X142926232Y-48809419D01*
X144065000Y-48809419D01*
X144065000Y-49190581D01*
X144139361Y-49564419D01*
X144285225Y-49916566D01*
X144496987Y-50233491D01*
X144766509Y-50503013D01*
X145083434Y-50714775D01*
X145435581Y-50860639D01*
X145809419Y-50935000D01*
X146190581Y-50935000D01*
X146564419Y-50860639D01*
X146916566Y-50714775D01*
X147233491Y-50503013D01*
X147503013Y-50233491D01*
X147714775Y-49916566D01*
X147860639Y-49564419D01*
X147935000Y-49190581D01*
X147935000Y-48809419D01*
X147931082Y-48789721D01*
X150785000Y-48789721D01*
X150785000Y-49210279D01*
X150867047Y-49622756D01*
X151027988Y-50011302D01*
X151261637Y-50360983D01*
X151559017Y-50658363D01*
X151908698Y-50892012D01*
X152297244Y-51052953D01*
X152709721Y-51135000D01*
X153130279Y-51135000D01*
X153542756Y-51052953D01*
X153931302Y-50892012D01*
X154280983Y-50658363D01*
X154439346Y-50500000D01*
X155861928Y-50500000D01*
X155874188Y-50624482D01*
X155910498Y-50744180D01*
X155969463Y-50854494D01*
X156048815Y-50951185D01*
X156145506Y-51030537D01*
X156255820Y-51089502D01*
X156375518Y-51125812D01*
X156500000Y-51138072D01*
X157714250Y-51135000D01*
X157873000Y-50976250D01*
X157873000Y-49127000D01*
X158127000Y-49127000D01*
X158127000Y-50976250D01*
X158285750Y-51135000D01*
X159500000Y-51138072D01*
X159624482Y-51125812D01*
X159744180Y-51089502D01*
X159854494Y-51030537D01*
X159951185Y-50951185D01*
X160030537Y-50854494D01*
X160089502Y-50744180D01*
X160125812Y-50624482D01*
X160138072Y-50500000D01*
X160135000Y-49285750D01*
X159976250Y-49127000D01*
X158127000Y-49127000D01*
X157873000Y-49127000D01*
X156023750Y-49127000D01*
X155865000Y-49285750D01*
X155861928Y-50500000D01*
X154439346Y-50500000D01*
X154578363Y-50360983D01*
X154812012Y-50011302D01*
X154972953Y-49622756D01*
X155055000Y-49210279D01*
X155055000Y-48789721D01*
X154972953Y-48377244D01*
X154812012Y-47988698D01*
X154578363Y-47639017D01*
X154439346Y-47500000D01*
X155861928Y-47500000D01*
X155865000Y-48714250D01*
X156023750Y-48873000D01*
X157873000Y-48873000D01*
X157873000Y-47023750D01*
X158127000Y-47023750D01*
X158127000Y-48873000D01*
X159976250Y-48873000D01*
X160135000Y-48714250D01*
X160138072Y-47500000D01*
X160125812Y-47375518D01*
X160089502Y-47255820D01*
X160030537Y-47145506D01*
X159951185Y-47048815D01*
X159854494Y-46969463D01*
X159744180Y-46910498D01*
X159624482Y-46874188D01*
X159500000Y-46861928D01*
X158285750Y-46865000D01*
X158127000Y-47023750D01*
X157873000Y-47023750D01*
X157714250Y-46865000D01*
X156500000Y-46861928D01*
X156375518Y-46874188D01*
X156255820Y-46910498D01*
X156145506Y-46969463D01*
X156048815Y-47048815D01*
X155969463Y-47145506D01*
X155910498Y-47255820D01*
X155874188Y-47375518D01*
X155861928Y-47500000D01*
X154439346Y-47500000D01*
X154280983Y-47341637D01*
X153931302Y-47107988D01*
X153542756Y-46947047D01*
X153130279Y-46865000D01*
X152709721Y-46865000D01*
X152297244Y-46947047D01*
X151908698Y-47107988D01*
X151559017Y-47341637D01*
X151261637Y-47639017D01*
X151027988Y-47988698D01*
X150867047Y-48377244D01*
X150785000Y-48789721D01*
X147931082Y-48789721D01*
X147860639Y-48435581D01*
X147714775Y-48083434D01*
X147503013Y-47766509D01*
X147233491Y-47496987D01*
X146916566Y-47285225D01*
X146564419Y-47139361D01*
X146190581Y-47065000D01*
X145809419Y-47065000D01*
X145435581Y-47139361D01*
X145083434Y-47285225D01*
X144766509Y-47496987D01*
X144496987Y-47766509D01*
X144285225Y-48083434D01*
X144139361Y-48435581D01*
X144065000Y-48809419D01*
X142926232Y-48809419D01*
X142896457Y-48571049D01*
X142776333Y-48209310D01*
X142644312Y-47962317D01*
X142349224Y-47830381D01*
X141179605Y-49000000D01*
X140820395Y-49000000D01*
X140806253Y-48985858D01*
X140985858Y-48806253D01*
X141000000Y-48820395D01*
X142169619Y-47650776D01*
X142037683Y-47355688D01*
X141696955Y-47184841D01*
X141329443Y-47083750D01*
X140949271Y-47056299D01*
X140571049Y-47103543D01*
X140209310Y-47223667D01*
X140127000Y-47267663D01*
X140127000Y-40660000D01*
X169340000Y-40660000D01*
X169340000Y-66873000D01*
G37*
X169340000Y-66873000D02*
X150760000Y-66873000D01*
X150760000Y-65703711D01*
X150803937Y-65659774D01*
X150917205Y-65490256D01*
X150995226Y-65301898D01*
X151035000Y-65101939D01*
X151035000Y-64898061D01*
X150995226Y-64698102D01*
X150917205Y-64509744D01*
X150816258Y-64358665D01*
X158565000Y-64358665D01*
X158565000Y-64641335D01*
X158620147Y-64918574D01*
X158728320Y-65179727D01*
X158885363Y-65414759D01*
X159085241Y-65614637D01*
X159320273Y-65771680D01*
X159581426Y-65879853D01*
X159858665Y-65935000D01*
X160141335Y-65935000D01*
X160418574Y-65879853D01*
X160679727Y-65771680D01*
X160914759Y-65614637D01*
X161114637Y-65414759D01*
X161271680Y-65179727D01*
X161379853Y-64918574D01*
X161435000Y-64641335D01*
X161435000Y-64358665D01*
X161379853Y-64081426D01*
X161271680Y-63820273D01*
X161114637Y-63585241D01*
X160914759Y-63385363D01*
X160679727Y-63228320D01*
X160418574Y-63120147D01*
X160141335Y-63065000D01*
X159858665Y-63065000D01*
X159581426Y-63120147D01*
X159320273Y-63228320D01*
X159085241Y-63385363D01*
X158885363Y-63585241D01*
X158728320Y-63820273D01*
X158620147Y-64081426D01*
X158565000Y-64358665D01*
X150816258Y-64358665D01*
X150803937Y-64340226D01*
X150659774Y-64196063D01*
X150490256Y-64082795D01*
X150301898Y-64004774D01*
X150101939Y-63965000D01*
X149898061Y-63965000D01*
X149698102Y-64004774D01*
X149509744Y-64082795D01*
X149340226Y-64196063D01*
X149196063Y-64340226D01*
X149082795Y-64509744D01*
X149004774Y-64698102D01*
X148965000Y-64898061D01*
X148965000Y-65101939D01*
X149004774Y-65301898D01*
X149082795Y-65490256D01*
X149196063Y-65659774D01*
X149240001Y-65703712D01*
X149240000Y-66685198D01*
X149052198Y-66873000D01*
X143823680Y-66873000D01*
X143921255Y-66690449D01*
X144012030Y-66391204D01*
X144042681Y-66080000D01*
X144012030Y-65768796D01*
X143921255Y-65469551D01*
X143773845Y-65193765D01*
X143575463Y-64952037D01*
X143402391Y-64810000D01*
X143575463Y-64667963D01*
X143773845Y-64426235D01*
X143921255Y-64150449D01*
X144012030Y-63851204D01*
X144042681Y-63540000D01*
X144012030Y-63228796D01*
X143921255Y-62929551D01*
X143773845Y-62653765D01*
X143670554Y-62527905D01*
X143754494Y-62483037D01*
X143851185Y-62403685D01*
X143930537Y-62306994D01*
X143989502Y-62196680D01*
X144025812Y-62076982D01*
X144038072Y-61952500D01*
X144038072Y-61800000D01*
X158561928Y-61800000D01*
X158574188Y-61924482D01*
X158610498Y-62044180D01*
X158669463Y-62154494D01*
X158748815Y-62251185D01*
X158845506Y-62330537D01*
X158955820Y-62389502D01*
X159075518Y-62425812D01*
X159200000Y-62438072D01*
X159714250Y-62435000D01*
X159873000Y-62276250D01*
X159873000Y-61127000D01*
X160127000Y-61127000D01*
X160127000Y-62276250D01*
X160285750Y-62435000D01*
X160800000Y-62438072D01*
X160924482Y-62425812D01*
X161044180Y-62389502D01*
X161154494Y-62330537D01*
X161251185Y-62251185D01*
X161330537Y-62154494D01*
X161389502Y-62044180D01*
X161425812Y-61924482D01*
X161438072Y-61800000D01*
X161435000Y-61285750D01*
X161276250Y-61127000D01*
X160127000Y-61127000D01*
X159873000Y-61127000D01*
X158723750Y-61127000D01*
X158565000Y-61285750D01*
X158561928Y-61800000D01*
X144038072Y-61800000D01*
X144038072Y-60200000D01*
X158561928Y-60200000D01*
X158565000Y-60714250D01*
X158723750Y-60873000D01*
X159873000Y-60873000D01*
X159873000Y-59723750D01*
X160127000Y-59723750D01*
X160127000Y-60873000D01*
X161276250Y-60873000D01*
X161435000Y-60714250D01*
X161438072Y-60200000D01*
X161425812Y-60075518D01*
X161389502Y-59955820D01*
X161330537Y-59845506D01*
X161251185Y-59748815D01*
X161154494Y-59669463D01*
X161044180Y-59610498D01*
X160924482Y-59574188D01*
X160800000Y-59561928D01*
X160285750Y-59565000D01*
X160127000Y-59723750D01*
X159873000Y-59723750D01*
X159714250Y-59565000D01*
X159200000Y-59561928D01*
X159075518Y-59574188D01*
X158955820Y-59610498D01*
X158845506Y-59669463D01*
X158748815Y-59748815D01*
X158669463Y-59845506D01*
X158610498Y-59955820D01*
X158574188Y-60075518D01*
X158561928Y-60200000D01*
X144038072Y-60200000D01*
X144038072Y-60047500D01*
X144025812Y-59923018D01*
X143989502Y-59803320D01*
X143930537Y-59693006D01*
X143851185Y-59596315D01*
X143754494Y-59516963D01*
X143644180Y-59457998D01*
X143524482Y-59421688D01*
X143400000Y-59409428D01*
X141400000Y-59409428D01*
X141275518Y-59421688D01*
X141155820Y-59457998D01*
X141045506Y-59516963D01*
X140948815Y-59596315D01*
X140869463Y-59693006D01*
X140810498Y-59803320D01*
X140774188Y-59923018D01*
X140761928Y-60047500D01*
X140761928Y-61952500D01*
X140774188Y-62076982D01*
X140797855Y-62155000D01*
X140385000Y-62155000D01*
X140385000Y-55068037D01*
X140391701Y-55000000D01*
X140364960Y-54728493D01*
X140285764Y-54467419D01*
X140157157Y-54226812D01*
X140127000Y-54190066D01*
X140127000Y-52000000D01*
X161873000Y-52000000D01*
X161873000Y-58000000D01*
X161875440Y-58024776D01*
X161882667Y-58048601D01*
X161894403Y-58070557D01*
X161910197Y-58089803D01*
X161929443Y-58105597D01*
X161951399Y-58117333D01*
X161975224Y-58124560D01*
X162000000Y-58127000D01*
X168000000Y-58127000D01*
X168024776Y-58124560D01*
X168048601Y-58117333D01*
X168070557Y-58105597D01*
X168089803Y-58089803D01*
X168105597Y-58070557D01*
X168117333Y-58048601D01*
X168124560Y-58024776D01*
X168127000Y-58000000D01*
X168127000Y-52000000D01*
X168124560Y-51975224D01*
X168117333Y-51951399D01*
X168105597Y-51929443D01*
X168089803Y-51910197D01*
X168070557Y-51894403D01*
X168048601Y-51882667D01*
X168024776Y-51875440D01*
X168000000Y-51873000D01*
X162000000Y-51873000D01*
X161975224Y-51875440D01*
X161951399Y-51882667D01*
X161929443Y-51894403D01*
X161910197Y-51910197D01*
X161894403Y-51929443D01*
X161882667Y-51951399D01*
X161875440Y-51975224D01*
X161873000Y-52000000D01*
X140127000Y-52000000D01*
X140127000Y-50726887D01*
X140303045Y-50815159D01*
X140670557Y-50916250D01*
X141050729Y-50943701D01*
X141428951Y-50896457D01*
X141790690Y-50776333D01*
X142037683Y-50644312D01*
X142169619Y-50349224D01*
X141000000Y-49179605D01*
X140985858Y-49193748D01*
X140806253Y-49014143D01*
X140820395Y-49000000D01*
X141179605Y-49000000D01*
X142349224Y-50169619D01*
X142644312Y-50037683D01*
X142815159Y-49696955D01*
X142916250Y-49329443D01*
X142943701Y-48949271D01*
X142926232Y-48809419D01*
X144065000Y-48809419D01*
X144065000Y-49190581D01*
X144139361Y-49564419D01*
X144285225Y-49916566D01*
X144496987Y-50233491D01*
X144766509Y-50503013D01*
X145083434Y-50714775D01*
X145435581Y-50860639D01*
X145809419Y-50935000D01*
X146190581Y-50935000D01*
X146564419Y-50860639D01*
X146916566Y-50714775D01*
X147233491Y-50503013D01*
X147503013Y-50233491D01*
X147714775Y-49916566D01*
X147860639Y-49564419D01*
X147935000Y-49190581D01*
X147935000Y-48809419D01*
X147931082Y-48789721D01*
X150785000Y-48789721D01*
X150785000Y-49210279D01*
X150867047Y-49622756D01*
X151027988Y-50011302D01*
X151261637Y-50360983D01*
X151559017Y-50658363D01*
X151908698Y-50892012D01*
X152297244Y-51052953D01*
X152709721Y-51135000D01*
X153130279Y-51135000D01*
X153542756Y-51052953D01*
X153931302Y-50892012D01*
X154280983Y-50658363D01*
X154439346Y-50500000D01*
X155861928Y-50500000D01*
X155874188Y-50624482D01*
X155910498Y-50744180D01*
X155969463Y-50854494D01*
X156048815Y-50951185D01*
X156145506Y-51030537D01*
X156255820Y-51089502D01*
X156375518Y-51125812D01*
X156500000Y-51138072D01*
X157714250Y-51135000D01*
X157873000Y-50976250D01*
X157873000Y-49127000D01*
X158127000Y-49127000D01*
X158127000Y-50976250D01*
X158285750Y-51135000D01*
X159500000Y-51138072D01*
X159624482Y-51125812D01*
X159744180Y-51089502D01*
X159854494Y-51030537D01*
X159951185Y-50951185D01*
X160030537Y-50854494D01*
X160089502Y-50744180D01*
X160125812Y-50624482D01*
X160138072Y-50500000D01*
X160135000Y-49285750D01*
X159976250Y-49127000D01*
X158127000Y-49127000D01*
X157873000Y-49127000D01*
X156023750Y-49127000D01*
X155865000Y-49285750D01*
X155861928Y-50500000D01*
X154439346Y-50500000D01*
X154578363Y-50360983D01*
X154812012Y-50011302D01*
X154972953Y-49622756D01*
X155055000Y-49210279D01*
X155055000Y-48789721D01*
X154972953Y-48377244D01*
X154812012Y-47988698D01*
X154578363Y-47639017D01*
X154439346Y-47500000D01*
X155861928Y-47500000D01*
X155865000Y-48714250D01*
X156023750Y-48873000D01*
X157873000Y-48873000D01*
X157873000Y-47023750D01*
X158127000Y-47023750D01*
X158127000Y-48873000D01*
X159976250Y-48873000D01*
X160135000Y-48714250D01*
X160138072Y-47500000D01*
X160125812Y-47375518D01*
X160089502Y-47255820D01*
X160030537Y-47145506D01*
X159951185Y-47048815D01*
X159854494Y-46969463D01*
X159744180Y-46910498D01*
X159624482Y-46874188D01*
X159500000Y-46861928D01*
X158285750Y-46865000D01*
X158127000Y-47023750D01*
X157873000Y-47023750D01*
X157714250Y-46865000D01*
X156500000Y-46861928D01*
X156375518Y-46874188D01*
X156255820Y-46910498D01*
X156145506Y-46969463D01*
X156048815Y-47048815D01*
X155969463Y-47145506D01*
X155910498Y-47255820D01*
X155874188Y-47375518D01*
X155861928Y-47500000D01*
X154439346Y-47500000D01*
X154280983Y-47341637D01*
X153931302Y-47107988D01*
X153542756Y-46947047D01*
X153130279Y-46865000D01*
X152709721Y-46865000D01*
X152297244Y-46947047D01*
X151908698Y-47107988D01*
X151559017Y-47341637D01*
X151261637Y-47639017D01*
X151027988Y-47988698D01*
X150867047Y-48377244D01*
X150785000Y-48789721D01*
X147931082Y-48789721D01*
X147860639Y-48435581D01*
X147714775Y-48083434D01*
X147503013Y-47766509D01*
X147233491Y-47496987D01*
X146916566Y-47285225D01*
X146564419Y-47139361D01*
X146190581Y-47065000D01*
X145809419Y-47065000D01*
X145435581Y-47139361D01*
X145083434Y-47285225D01*
X144766509Y-47496987D01*
X144496987Y-47766509D01*
X144285225Y-48083434D01*
X144139361Y-48435581D01*
X144065000Y-48809419D01*
X142926232Y-48809419D01*
X142896457Y-48571049D01*
X142776333Y-48209310D01*
X142644312Y-47962317D01*
X142349224Y-47830381D01*
X141179605Y-49000000D01*
X140820395Y-49000000D01*
X140806253Y-48985858D01*
X140985858Y-48806253D01*
X141000000Y-48820395D01*
X142169619Y-47650776D01*
X142037683Y-47355688D01*
X141696955Y-47184841D01*
X141329443Y-47083750D01*
X140949271Y-47056299D01*
X140571049Y-47103543D01*
X140209310Y-47223667D01*
X140127000Y-47267663D01*
X140127000Y-40660000D01*
X169340000Y-40660000D01*
X169340000Y-66873000D01*
M02*
